<svg xmlns="http://www.w3.org/2000/svg" xml:space="preserve" width="300" height="300" viewBox="0 0 300 300"><path d="M211.094 232.81c0 62.132-50.366 112.498-112.5 112.498-62.131 0-112.5-50.366-112.5-112.498 0-62.135 50.369-112.502 112.5-112.502 62.134 0 112.5 50.367 112.5 112.502" style="fill:#ed1c24;fill-opacity:1;fill-rule:nonzero;stroke:none;stroke-width:.357838" transform="matrix(1.33333 0 0 -1.33333 18.541 460.411)"/><path d="M194.657 232.808c0 53.054-43.01 96.063-96.063 96.063-53.054 0-96.063-43.009-96.063-96.063 0-53.053 43.01-96.062 96.063-96.062 53.054 0 96.063 43.009 96.063 96.062" style="fill:#2e3192;fill-opacity:1;fill-rule:nonzero;stroke:none;stroke-width:.357841" transform="matrix(1.33333 0 0 -1.33333 18.541 460.411)"/><path d="M179.247 232.81c0 44.541-36.11 80.651-80.653 80.651-44.543 0-80.653-36.11-80.653-80.65 0-44.545 36.11-80.655 80.653-80.655 44.543 0 80.653 36.11 80.653 80.654" style="fill:#fff200;fill-opacity:1;fill-rule:nonzero;stroke:none;stroke-width:.357839" transform="matrix(1.33333 0 0 -1.33333 18.541 460.411)"/></svg>