<svg xmlns="http://www.w3.org/2000/svg" width="287.14993pt" height="374.99997pt" viewBox="0 0 287.14995 374.99999"><g fill-rule="evenodd"><path fill="#ed272d" d="m502.064 815.95 52.866 64.27-21.674 211.464-122.088 99.267-121.707-99.267-21.681-211.463 52.866-64.27z" style="stroke-width:6.4392" transform="translate(-267.78 -815.95)"/><path fill="#fff" d="M495.6 829.257H327.11c-6.465 7.984-39.562 47.92-45.254 55.145 1.14 10.27 19.388 190.17 20.534 200.44 7.611 6.085 94.702 76.82 108.778 88.236 14.45-11.417 101.54-82.151 109.15-88.236.754-10.27 19.396-190.17 20.162-200.44-5.712-7.225-38.416-47.16-44.881-55.145m4.565 244.934c-11.41 9.125-84.43 68.842-88.996 72.267-18.642-15.215-78.732-63.902-88.996-72.267-1.527-15.596-17.882-174.573-18.636-183.317 7.605-9.131 30.04-36.89 33.092-40.696h149.08c8.377 10.27 28.906 35.364 33.471 40.696-1.52 14.829-17.489 168.108-19.015 183.317" style="stroke-width:6.4392" transform="translate(-267.78 -815.95)"/><path fill="#fff" d="M350.315 886.688c1.9 3.806 3.046 8.377 3.046 13.696v4.946l-.766 5.698c-.767 3.806-1.52 7.231-3.04 9.511-1.9 2.66-4.192 4.179-6.851 4.179-2.66 0-4.945-1.9-6.845-5.319-2.286-3.425-3.046-7.604-3.046-12.936v-5.699c0-.76 0-1.9.387-3.425 0-1.907.373-3.04.76-4.566.76-3.42 1.9-6.085 3.045-7.991 1.9-2.267 3.793-3.42 6.085-3.42 3.04 0 5.32 1.907 7.225 5.326m18.255-11.79c-.38.38-.38 1.146-.38 1.9v56.291c0 .76 0 1.146.76 1.906.38.38.766.38 1.52.38.766 0 1.146 0 1.52-.773.766-.367.766-1.127.766-1.893v-56.298c0-.753 0-1.133-.387-1.513-.753-.38-1.133-.754-1.9-.754-.753 0-1.139.374-1.899.754m-33.85 4.565c-2.28 2.28-3.42 4.18-4.18 6.079-.766 1.526-1.146 4.192-1.9 7.611-.766 3.046-1.145 5.325-1.145 6.851v7.219c0 .772.38 2.292.76 4.192.386 1.9.386 3.419.76 3.799 1.525 4.945 3.045 7.984 3.798 9.504 2.666 3.812 5.712 5.712 9.891 5.712 3.426 0 6.471-1.147 8.75-3.426 1.907-1.9 3.42-4.559 4.566-7.985a45.672 45.672 0 0 0 1.9-8.37l.38-5.32v-7.99c-.38-1.14-.38-2.666-.76-4.566-1.14-5.319-2.666-9.504-5.325-12.55-2.286-3.046-4.946-4.565-7.605-4.565h-2.666c-2.273 0-4.939 1.52-7.225 3.805M429.045 875.275c.38 0 1.14 0 1.513.386.386.753.766 1.133.766 1.52v57.424c0 .387-.38.767-.766 1.147-.753.373-1.133.766-2.273.766-.386 0-.766 0-1.146-.393-.754 0-.754-.373-.754-.753V877.18c0-.387 0-.767.754-1.14.38-.38 1.146-.766 1.906-.766m-41.456 2.285h23.954c1.526 0 3.046.387 3.806 1.527.76 1.14 1.14 2.273 1.14 3.799v6.845c0 3.419-.754 7.61-1.9 12.55-1.9 5.325-3.8 9.517-6.465 12.93-1.9 2.665-4.946 5.711-8.751 9.13-4.945 3.806-9.125 6.465-12.557 6.845-.753.38-1.126 0-1.893-.38-.38-.753-.38-1.52-.38-2.273 0-.772.38-1.532 1.147-2.292 1.52-.753 3.792-2.28 7.604-4.18.754-.38 1.526-.765 1.9-.765 2.666-1.894 5.319-4.566 7.984-7.605 1.906-2.66 4.186-6.085 5.706-10.644 1.906-4.566 2.659-8.371 2.659-12.17v-5.332c0-1.14 0-1.52-.753-2.28-.76-.38-1.147-.753-1.52-.753h-21.301c-.38 0-.76-.393-1.153-.766-.753-.753-.753-1.146-.753-1.906 0-.753 0-1.14.386-1.513.367-.767.76-.767 1.14-.767M484.564 874.143c.766 0 1.146.38 1.52.753.386.38.765 1.147.765 1.9v25.113h5.326c.386 0 1.146.373 1.52 1.14.392.373.76 1.133.76 1.893s-.368 1.14-.76 1.526c-.374.76-.754 1.133-1.134 1.133h-5.712v25.873c0 .76-.38 1.133-.766 1.52-.373.38-1.127.753-1.52.753-.38 0-1.14-.374-1.506-.374-.773-.766-1.153-1.14-1.153-1.526v-57.804c0-.387.38-.767.766-1.147.387-.373 1.14-.753 1.894-.753m-40.31 2.273h30.432c.367 0 1.14.38 1.513 1.146 0 .387.393 1.14.393 1.9 0 .38-.393 1.14-.766 1.526 0 .76-.773.76-1.14.76h-13.69v3.033c.367 1.532.367 3.045.367 4.951 0 1.9.386 3.812.766 6.085 0 1.9.767 4.192 1.52 6.465.386 1.52.766 3.046 1.52 5.32.766 1.532 1.526 3.431 2.665 5.71 1.147 1.52 2.28 3.42 3.046 4.952.754 1.514 2.28 3.42 4.566 6.079 1.513 1.9 2.28 3.42 2.28 4.185 0 .754 0 1.134-.38 1.9-.754.753-1.147 1.14-2.293 1.14-.367 0-1.52-.76-3.04-2.66-.753-1.146-1.9-2.286-2.652-3.805-.38 0-1.147-1.52-2.666-3.806-1.14-1.9-1.9-3.033-2.28-3.799-1.146-2.286-2.286-4.945-3.419-7.605-.766-2.665-1.52-5.318-1.906-7.984h-.386c-.374 3.033-1.134 5.319-1.52 6.838-.753 3.052-1.9 6.085-3.42 9.131-1.139 2.66-2.279 4.18-3.045 5.319-1.146 1.52-1.9 3.046-2.273 3.805-.773 1.147-1.533 1.906-1.906 2.66-1.14 1.146-2.286 1.52-3.052 1.52-.374 0-1.133-.374-1.513-.754-.76-.766-.76-1.52-.76-1.9 0-.766.373-1.906 1.52-3.039 1.52-2.292 3.419-4.565 4.938-6.858.773-1.133 1.9-3.039 2.673-5.318.76-1.9 1.52-3.42 2.28-5.32.759-2.665 1.519-5.71 2.285-9.13 1.133-4.952 1.52-9.13 1.52-12.55v-4.565h-11.797c-.753 0-1.52 0-1.52-.76-.38-.387-.76-1.146-.76-1.9 0-.766.38-1.14.76-1.906.374-.386.767-.766 1.14-.766" style="stroke-width:6.4392" transform="translate(-267.78 -815.95)"/></g></svg>