<?xml version="1.0" encoding="utf-8"?>
<!-- Generator: Adobe Illustrator 24.3.0, SVG Export Plug-In . SVG Version: 6.00 Build 0)  -->
<svg version="1.1" id="Layer_1" xmlns="http://www.w3.org/2000/svg" xmlns:xlink="http://www.w3.org/1999/xlink" x="0px" y="0px"
	 viewBox="0 0 226.77 127.56" style="enable-background:new 0 0 226.77 127.56;" xml:space="preserve">
<style type="text/css">
	.st0{fill:#FF401E;stroke:#1D1D1B;stroke-width:0.5;stroke-miterlimit:10;}
	.st1{fill:#90FF69;stroke:#1D1D1B;stroke-width:0.5;stroke-miterlimit:10;}
</style>
<g>
	<path d="M54.89,55.32c-2.79-0.45-5.71-0.92-8.77-1.43c-0.72-0.12-1.19-0.58-1.4-1.36c-0.19-0.51-0.24-1.2-0.16-2.06
		c0.42-2.9,0.89-5.55,1.28-7.99c0.28-1.87,0.55-3.91,0.79-6.14c0.19-2.37,0.32-4.95,0.38-7.74c-0.02-2.95-0.08-5.96-0.19-9.01
		c-0.19-3.04-0.39-6.04-0.62-8.99c-0.05-0.47,0.01-0.84,0.17-1.1c0.17-0.29,0.37-0.34,0.58-0.17c1.41,1.17,2.82,2.34,4.23,3.51
		c0.81,0.72,1.82,1.57,3.05,2.59c1.83,1.54,3.26,2.74,4.29,3.57c0.45,0.37,0.9,0.73,1.35,1.1c1.52,1.23,2.71,2.22,3.6,2.98
		c1.52,1.3,3.04,2.92,4.56,4.79c1.78,2.02,3.29,4.08,4.56,6.16c1.51,2.34,2.51,4.82,3.02,7.71c0.51,2.93,0.67,5.43,0.47,7.46
		c-0.16,2.1-0.72,3.8-1.7,5.07c-0.99,1.27-2.47,2.1-4.51,2.44c-1.02,0.18-2.22,0.24-3.61,0.19c-1.43-0.05-3.07-0.22-4.93-0.52
		C59.25,56.04,57.1,55.68,54.89,55.32L54.89,55.32 M60.57,48.92c0.12,0.05,0.29,0.11,0.49,0.15c0.23,0.04,0.53,0.06,0.92,0.08
		c0.14-0.01,0.23-0.03,0.29-0.05c0.07-0.06,0.13-0.1,0.19-0.12c0.27-0.44,0.45-1.45,0.55-3.02c0.07-0.98,0.1-2.65,0.1-5.02
		c-0.08-2.03-0.2-3.78-0.35-5.27c-0.03-0.34-0.07-0.68-0.1-1.01c-0.1-0.92-0.29-2.33-0.61-4.22c-0.36-1.94-0.75-3.39-1.14-4.35
		c-0.33-0.69-0.6-1.12-0.82-1.28c-0.22-0.16-0.42-0.26-0.58-0.32c-0.16-0.05-0.27-0.07-0.32-0.07c-0.05,0-0.15,0.02-0.3,0.04
		c0.19,2.24,0.38,4.5,0.56,6.77c0.05,0.6,0.1,1.5,0.14,2.69c0.02,0.45,0.04,0.9,0.07,1.35c0.09,1.87,0.17,3.22,0.24,4.06
		C60.09,42.53,60.32,45.73,60.57,48.92L60.57,48.92"/>
	<path d="M84.06,60.07c-0.42-0.03-0.82-0.65-1.18-1.82c-0.17-0.49-0.3-0.93-0.38-1.32c-0.11-0.52-0.18-0.84-0.23-0.96
		c-0.21-0.93-0.56-2.38-1.02-4.34c-0.15-0.59-0.3-1.17-0.44-1.74c-0.62-2.62-1.03-4.47-1.23-5.63c-0.29-1.61-0.58-3.16-0.85-4.67
		c-0.27-1.39-0.53-2.71-0.78-3.97c-0.03-0.15,0.16-0.24,0.58-0.28c0.22-0.04,0.56-0.06,0.99-0.06c0.29,0,0.6,0.01,0.95,0.03
		c0.34,0,0.6-0.02,0.76-0.03c0.37,0,0.94-0.05,1.71-0.17c0.04-0.04,0.08-0.08,0.12-0.13c0.53-0.1,1.05-0.2,1.58-0.31
		c0.08,0.06,0.18,0.08,0.27,0.06c0.05-0.01,0.09-0.02,0.14-0.03c0.02-0.03,0.08-0.06,0.18-0.08c0.04-0.04,0.11-0.07,0.21-0.09
		c0.01-0.03,0.04-0.05,0.06-0.05c0.02-0.01,0.04-0.01,0.04-0.01c0.07-0.02,0.16-0.01,0.26,0.02c0.1,0.01,0.17,0,0.22-0.01
		c0.89-0.22,1.77-0.44,2.65-0.67c0.38,2.38,0.77,4.78,1.17,7.19c0,0.03,0,0.13-0.03,0.31c0,0.14,0.01,0.35,0.02,0.61
		c0.09,1.03,0.18,1.85,0.28,2.46c0.45,2.88,0.92,5.82,1.41,8.81c0.06,0.59,0.13,1.19,0.2,1.78c0.06,0.79,0.15,1.44,0.26,1.94
		c0.12,0.68,0.19,1.22,0.22,1.64c0.05,0.39,0.03,0.69-0.04,0.92c-0.09,0.22-0.29,0.33-0.58,0.32c-0.01-0.01-0.03-0.03-0.04-0.04
		c-0.04-0.02-0.08-0.04-0.11-0.05c-0.05,0-0.07,0.01-0.06,0.05c-0.06,0-0.12,0-0.17,0c-0.12,0.06-0.19,0.1-0.21,0.14
		c-0.11,0-0.38-0.05-0.8-0.16c-0.17-0.02-0.33-0.04-0.49-0.06c-0.11,0-0.17,0.06-0.16,0.19c-1.02-0.03-2.04-0.07-3.05-0.12
		c-0.29,0.06-0.57,0.12-0.85,0.19c-0.27,0.03-0.54,0.06-0.81,0.09C84.57,60.04,84.31,60.05,84.06,60.07L84.06,60.07"/>
	<path d="M102.33,59.7c-0.23,0.01-0.4-0.03-0.51-0.09c-0.14-0.06-0.27-0.08-0.37-0.08c-0.1,0.01-0.2,0.01-0.3,0.01
		c-0.2-0.16-0.31-0.33-0.33-0.49c-0.75-2.21-1.51-4.4-2.26-6.57c-0.75-2.13-1.49-4.24-2.24-6.33c-0.51-1.5-1.02-3.04-1.53-4.62
		c-0.5-1.57-1.01-3.17-1.52-4.81c-0.01-0.13-0.04-0.24-0.08-0.35c-0.05-0.15-0.09-0.29-0.13-0.43c-0.19-0.64-0.29-1.12-0.34-1.45
		c-0.04-0.35-0.05-0.61-0.02-0.78c0.03-0.31,0.16-0.51,0.4-0.57c0.24-0.07,0.48-0.13,0.72-0.2c0.28-0.05,0.68-0.15,1.18-0.29
		c0.35-0.11,0.71-0.21,1.06-0.31c0.17-0.03,0.34-0.07,0.51-0.1c0.72-0.21,1.44-0.42,2.17-0.63c0.02,0.03,0.06,0.07,0.12,0.11
		c0.07,0.02,0.15,0.01,0.22-0.01c0,0,0,0,0.03-0.01c0.02-0.04,0.04-0.09,0.06-0.17c0.09-0.04,0.19-0.08,0.28-0.13
		c0.05-0.01,0.09-0.03,0.14-0.04c0.24-0.03,0.57-0.12,1-0.24c0.41-0.02,1.03-0.15,1.86-0.39c0.2,0.33,0.5,1.33,0.9,3.01
		c0.19,0.79,0.37,1.59,0.55,2.39c0.12,0.51,0.24,1.03,0.36,1.55c0.1,0.39,0.2,0.79,0.3,1.2c0.05,0.27,0.11,0.54,0.18,0.81
		c0.33,1.61,0.64,3.01,0.93,4.2c0.21,1.12,0.52,2.52,0.92,4.22c0.05,0.25,0.1,0.51,0.15,0.77c0.01,0.08,0.02,0.17,0.03,0.26
		c0.01,0.16,0.03,0.32,0.08,0.46c-0.01-0.07-0.01-0.12,0.01-0.16c0.02-0.04,0.03-0.09,0.02-0.16c-0.02-0.2-0.03-0.35-0.01-0.41
		c0-0.27,0-0.53-0.01-0.78c0.04-1.02,0.06-2.48,0.07-4.38c0.01-0.64,0.02-1.28,0.03-1.92c0.03-0.46,0.05-0.9,0.06-1.34
		c0-0.42,0.01-0.82,0.03-1.18c-0.01-0.32,0-0.53,0.02-0.64c0.01-0.11,0.01-0.19,0.01-0.22c0.02-0.91,0.06-1.9,0.14-3
		c0.02-0.45,0.04-0.89,0.06-1.33c0.02-1.17,0.1-2.37,0.22-3.58c0.03-0.48,0.09-0.91,0.18-1.26c0.47-0.13,0.96-0.32,1.47-0.57
		c0.19-0.05,0.37-0.1,0.56-0.15c0.08-0.03,0.16-0.07,0.24-0.12c0.03-0.01,0.05-0.01,0.07-0.02c0.01,0.02,0.03,0.04,0.04,0.05
		c0.03,0.1,0.06,0.15,0.09,0.15c0.16-0.04,0.24-0.08,0.24-0.12c-0.01-0.04-0.01-0.06-0.01-0.06c0.02-0.04,0.03-0.07,0.03-0.12
		c0.73-0.18,1.45-0.35,2.17-0.52c0.44-0.11,0.88-0.22,1.31-0.33c0.32-0.06,0.58-0.11,0.76-0.19c0.34-0.05,0.68-0.1,1.03-0.15
		c0.38-0.04,0.61,0.61,0.67,1.95c-0.03,0.54-0.06,1.08-0.08,1.63c-0.07,0.64-0.09,1-0.08,1.08c-0.18,2.7-0.34,5.06-0.5,7.09
		c-0.15,2.01-0.29,3.71-0.43,5.11c-0.27,2.49-0.53,4.95-0.78,7.39c-0.25,2.41-0.49,4.81-0.73,7.19c0.01,0.07-0.02,0.16-0.07,0.27
		c-0.04,0.1-0.08,0.19-0.14,0.27c-0.09,0-0.17,0-0.26,0c-0.09,0.01-0.19,0.04-0.32,0.11c-0.08,0.07-0.18,0.12-0.31,0.12
		c-0.33,0.01-0.58-0.02-0.76-0.09c-0.31-0.05-0.57-0.08-0.79-0.07c-0.03,0.06-0.15,0.1-0.34,0.11c-0.3,0.08-0.9,0.14-1.81,0.18
		c-0.85,0.03-1.69,0.07-2.54,0.1c-0.07-0.04-0.32-0.08-0.73-0.12c-0.23,0.01-0.46,0.02-0.69,0.03c-0.11-0.02-0.22-0.03-0.33-0.04
		c-0.29,0.01-0.69,0.06-1.2,0.14C103.21,59.62,102.82,59.68,102.33,59.7L102.33,59.7"/>
	<path d="M123.02,58.85c-0.04-0.01-0.08-0.07-0.1-0.21c-0.17-0.33-0.31-0.71-0.4-1.17c-0.08-0.18-0.15-0.42-0.21-0.7
		c-0.23-0.64-0.44-1.54-0.59-2.68c-0.2-1.65-0.33-2.96-0.39-3.94c-0.05-0.43-0.1-1.03-0.15-1.8c-0.03-0.43-0.06-0.87-0.09-1.31
		c-0.07-1.1-0.14-1.98-0.2-2.6c-0.06-0.66-0.16-1.99-0.28-3.97c-0.16-2.7-0.29-5.12-0.38-7.24c-0.08-2.16-0.13-4-0.14-5.54
		c-0.03-0.48,0.32-0.81,1.04-0.96c0.59,0.09,1.18,0.19,1.77,0.29c1.21,0.24,2.12,0.47,2.72,0.67c0.9,0.31,1.8,0.57,2.71,0.79
		c0.21,0.04,0.37,0.07,0.47,0.05c0.16,0.04,0.32,0.08,0.48,0.12c0.05,0.08,0.11,0.16,0.18,0.25c0.67-0.08,1.38-0.06,2.11,0.05
		c0.74,0.12,1.63,0.31,2.69,0.58c0.04,0.01,0.1,0.07,0.17,0.19c0.34,0.09,0.68,0.17,1.02,0.26c0.17,0.04,0.32,0.23,0.43,0.56
		c0.14,0.33,0.28,0.81,0.4,1.4c0.13,0.47,0.25,1.03,0.37,1.69c0.17,0.87,0.31,1.45,0.4,1.74c0.1,0.96,0.04,1.42-0.17,1.38
		c-0.03-0.01-0.06-0.07-0.12-0.18c-0.05-0.03-0.09-0.05-0.13-0.08c-0.12-0.06-0.23-0.06-0.35-0.02c-0.12,0.08-0.26,0.1-0.41,0.08
		c-0.13-0.03-0.25-0.1-0.34-0.22c-0.05-0.06-0.15-0.09-0.3-0.11c-0.19-0.04-0.41-0.04-0.66,0.02c-0.08,0.01-0.25,0.03-0.51,0.05
		c-0.23,0.02-0.5,0.01-0.83-0.05c-0.92-0.18-1.59-0.27-1.99-0.27c-0.24-0.01-0.46,0.05-0.66,0.2c0-0.04,0-0.08,0-0.11
		c-0.09-0.01-0.15,0.14-0.19,0.5c-0.1,0.58-0.14,1.42-0.09,2.49c0,0.31,0.01,0.68,0.04,1.08c0.03,0.39,0.09,0.66,0.16,0.82
		c0.1,0.15,0.23,0.25,0.41,0.27c0.13,0.02,0.23-0.04,0.31-0.17c0.05,0.01,0.1,0.03,0.17,0.07c0.06,0.05,0.12,0.11,0.17,0.19
		c0.93,0.13,1.85,0.27,2.78,0.41c0.02-0.07,0.04-0.12,0.09-0.15c0.04-0.03,0.08-0.03,0.12-0.02c0.22,0.03,0.39,0.1,0.51,0.23
		c0.14,0.12,0.41,0.27,0.81,0.43c0.22,0.03,0.38,0.15,0.49,0.38c0.13,0.26,0.21,0.49,0.23,0.7c0.32,1.17,0.64,2.33,0.97,3.49
		c0.11,0.56-0.19,0.88-0.91,0.96c-0.41,0.09-1.21,0.07-2.4-0.07c-0.81-0.09-1.61-0.17-2.41-0.26c-0.31-0.03-0.54-0.02-0.68,0.04
		c-0.15,0.02-0.24,0.14-0.27,0.34c-0.08,0.17-0.1,0.45-0.08,0.84c0.01,0.07,0.01,0.15,0.02,0.22c0.01,0.17,0.03,0.29,0.05,0.37
		c0.01,0.39,0.03,0.77,0.04,1.16c0,0.25,0.01,0.62,0.04,1.11c0.03,0.44,0.05,0.88,0.08,1.32c0.99,0.08,2,0.11,3.03,0.09
		c1.01-0.02,2.01,0.02,3.01,0.11c0.07,0,0.13,0.09,0.19,0.27c0.05,0.14,0.08,0.31,0.09,0.52c0.06,0.21,0.1,0.43,0.11,0.67
		c0.08,0.52,0.17,1,0.28,1.45c0.11,0.5,0.21,1,0.32,1.51c0.03,0.52,0.05,1.05,0.08,1.58c-0.09,0.11-0.17,0.23-0.26,0.34
		c-0.11-0.01-0.22-0.01-0.33-0.02c-0.25-0.02-0.4-0.05-0.47-0.09c-0.07-0.07-0.15-0.1-0.24-0.11c-0.04,0.03-0.11,0.07-0.19,0.14
		c-0.09,0.06-0.16,0.12-0.22,0.18c-0.01-0.08-0.01-0.17-0.01-0.26c-0.13,0.01-0.27,0.03-0.4,0.04c-0.17-0.01-0.33-0.02-0.5-0.03
		c-0.08-0.01-0.15-0.05-0.2-0.12c-0.09-0.03-0.18-0.05-0.27-0.06c-0.82-0.06-1.38,0.02-1.7,0.24c-1.73-0.09-3.46-0.18-5.19-0.26
		C126.45,58.94,124.73,58.89,123.02,58.85L123.02,58.85"/>
	<path d="M153.07,61.29c-0.44-0.02-0.73-0.63-0.9-1.79c-0.1-0.49-0.15-0.93-0.17-1.31c-0.03-0.53-0.06-0.85-0.09-0.97
		c-0.08-0.94-0.24-2.42-0.5-4.45c-0.09-0.61-0.18-1.21-0.27-1.82c-0.44-2.82-0.76-4.88-0.93-6.21c-0.27-1.91-0.56-3.81-0.87-5.71
		c-0.33-1.89-0.67-3.78-1.02-5.66c-0.05-0.24,0.12-0.38,0.49-0.42c0.2-0.05,0.51-0.02,0.91,0.06c0.27,0.06,0.57,0.16,0.9,0.28
		c0.33,0.1,0.57,0.16,0.73,0.19c0.37,0.13,0.92,0.26,1.68,0.39c0.04-0.03,0.08-0.07,0.11-0.11c0.53,0.08,1.07,0.16,1.61,0.24
		c0.1,0.1,0.2,0.15,0.3,0.17c0.05,0.01,0.1,0.01,0.15,0.02c0.02-0.03,0.08-0.04,0.18-0.02c0.05-0.02,0.12-0.03,0.22-0.02
		c0.01-0.02,0.04-0.04,0.06-0.03c0.03,0,0.04,0,0.04,0c0.08,0.01,0.18,0.06,0.29,0.12c0.11,0.05,0.19,0.06,0.24,0.07
		c0.97,0.1,1.94,0.19,2.93,0.28c0.59,2.51,1.17,5.04,1.72,7.57c0,0.03,0,0.13-0.02,0.3c0,0.15,0.01,0.36,0.03,0.62
		c0.11,1.06,0.22,1.9,0.32,2.53c0.43,2.93,0.8,5.89,1.12,8.86c0.01,0.59,0.01,1.17,0.02,1.76c-0.03,0.77-0.01,1.4,0.04,1.9
		c0.03,0.67,0.03,1.19,0,1.6c-0.01,0.38-0.08,0.67-0.21,0.9c-0.15,0.22-0.4,0.32-0.74,0.31c-0.01-0.01-0.03-0.03-0.04-0.04
		c-0.04-0.02-0.08-0.03-0.11-0.04c-0.06-0.01-0.08,0-0.08,0.04c-0.07,0-0.13,0-0.2,0c-0.15,0.05-0.24,0.1-0.26,0.14
		c-0.14,0-0.43-0.06-0.9-0.16c-0.18-0.03-0.36-0.05-0.54-0.06c-0.13,0-0.2,0.05-0.22,0.19c-1.13-0.03-2.25-0.07-3.36-0.1
		c-0.32,0.07-0.64,0.13-0.95,0.2c-0.29,0.04-0.59,0.08-0.88,0.11C153.62,61.24,153.34,61.27,153.07,61.29L153.07,61.29"/>
	<path d="M169.71,60.99c-0.57-0.16-1.12-0.32-1.67-0.48c-0.03-0.09-0.07-0.18-0.1-0.28c-0.03,0-0.04-0.15-0.06-0.47
		c-0.01-0.4-0.05-0.72-0.08-0.96c-0.05-0.59-0.1-1.18-0.15-1.75c-0.06-0.37-0.12-0.95-0.18-1.74c-0.07-0.76-0.15-1.31-0.21-1.67
		c-0.05-0.45-0.1-0.91-0.15-1.36c-0.41-1.88-0.76-3.81-1.07-5.78c-0.06-0.34-0.12-0.68-0.17-1.01c-0.06-0.36-0.1-0.61-0.09-0.75
		c-0.04-0.22-0.08-0.44-0.12-0.66c-0.04-0.09-0.08-0.23-0.11-0.44c-0.12-0.63-0.24-1.25-0.35-1.87c-0.07-0.35-0.11-0.61-0.1-0.74
		c-0.03-0.15-0.06-0.29-0.09-0.44c0-0.07,0-0.15,0-0.22c-0.03-0.19-0.07-0.37-0.11-0.56c-0.03-0.3-0.09-0.69-0.19-1.17
		c-0.07-0.39-0.16-0.72-0.24-1.01c-0.08-0.33-0.16-0.67-0.24-1.01c-0.03-0.06-0.05-0.12-0.08-0.18c-0.09-0.05-0.1-0.1-0.02-0.13
		c0.01-0.45,0.29-0.76,0.83-0.94c0.25-0.1,0.7-0.13,1.34-0.09c0.47,0.02,1.7,0.05,3.69,0.07c1,0,1.62,0,1.87,0.01
		c0.41-0.01,0.91,0,1.49,0.03c0.28,0.05,0.48,0.11,0.62,0.2c0.11,0.07,0.23,0.18,0.34,0.36c0.14,0.17,0.24,0.3,0.32,0.39
		c0.35,0.43,0.69,0.85,1.03,1.27c-0.03-0.04,0.4,0.48,1.3,1.54c0.87,1.1,1.9,2.31,3.12,3.66c0.19,0.21,0.41,0.45,0.67,0.72
		s0.54,0.57,0.86,0.92c-0.13-0.47-0.25-0.93-0.37-1.4c-0.07-0.38-0.18-0.92-0.34-1.61c-0.2-0.92-0.38-1.94-0.53-3.08
		c-0.04-0.22-0.06-0.41-0.05-0.57c-0.01-0.2-0.02-0.35-0.04-0.46c-0.04-0.28-0.05-0.42-0.02-0.41c0.08-0.17,0.24-0.33,0.49-0.52
		c0.29-0.2,0.61-0.28,0.96-0.24c0.8,0.03,1.59,0.07,2.38,0.11c0.39,0.02,0.71,0.05,0.97,0.08c0.39,0.02,0.77,0.04,1.14,0.06
		c0.25,0.04,0.63,0.07,1.12,0.09c0.39,0.02,0.77,0.04,1.16,0.06c0.46,0.02,0.8,0.14,1.03,0.33c0.13,0.11,0.21,0.26,0.24,0.44
		c0.04,0.16,0.05,0.41,0.04,0.74c0,0.33-0.01,0.61-0.03,0.84c-0.01,0.25-0.01,0.55,0.02,0.9c0.01,0.09,0.01,0.17,0.02,0.26
		c0.02,0.08,0.04,0.19,0.06,0.34c0.05,0.32,0.1,0.64,0.15,0.95c0.43,1.36,1.04,2.7,1.82,4.01c1.43,1.53,3.04,3.05,4.85,4.54
		c2.96,2.34,4.63,3.91,5.2,4.62c0.25,0.42,0.49,0.85,0.72,1.28c0.08,0.65-0.13,1.04-0.63,1.17c-0.11,0.02-0.27,0.07-0.47,0.15
		c-0.15,0.05-0.34,0.11-0.55,0.15c-1.9,0.37-3.27,0.59-4.11,0.69c-2.7,0.47-5.27,0.89-7.72,1.26c-0.12,0.06-0.28,0.1-0.47,0.13
		c-0.48,0.06-0.98,0.05-1.5-0.02c-0.32-0.02-0.66-0.14-1.03-0.37c-1.88-1.61-3.72-3.24-5.53-4.88c-0.2-0.2-0.57-0.5-1.09-0.92
		c-0.24-0.16-0.48-0.32-0.71-0.48c-0.18-0.14-0.32-0.2-0.41-0.19c-0.09,0-0.16,0.05-0.2,0.14c-0.05,0.05-0.07,0.11-0.06,0.17
		c0.05,0.24,0.09,0.48,0.14,0.73c0,0.23,0.06,0.59,0.14,1.08c0.07,0.42,0.13,0.84,0.2,1.27c0,0.31,0.06,0.75,0.13,1.32
		c0.07,0.57,0.13,1.15,0.18,1.74c-0.03,0.05-0.03,0.14-0.02,0.27c0,0.03-0.03,0.26-0.1,0.72c-0.06,0.14-0.1,0.21-0.13,0.24
		c-0.04,0.04-0.14,0.07-0.34,0.08c-0.07-0.03-0.13-0.04-0.19-0.04c-0.04,0.01-0.07,0.01-0.1,0.01c-2.49,0.39-4.48,0.61-6.02,0.68
		C171.23,60.94,170.46,60.97,169.71,60.99L169.71,60.99"/>
	<path d="M71.32,107.68c-0.23,0.08-0.72-0.3-1.48-1.15c-1.46-1.47-3.99-4.35-7.75-8.73c-3.78-4.28-8.06-9.28-12.51-14.9
		c-1.32-1.8-3.26-4.55-5.66-8.23c-0.15-0.11-0.29-0.23-0.42-0.34c-3.05-0.55-6.21-1.11-9.47-1.7c-0.78-0.14-1.63-0.64-2.53-1.47
		c-0.85-0.88-1.77-2.05-2.7-3.48c-1.08-1.67-2.32-4-3.7-6.95c-0.17-0.37-0.33-0.73-0.5-1.1c-0.23-0.53-0.38-0.92-0.46-1.22
		c-0.27-0.61-0.53-1.23-0.79-1.84c-0.13-0.3-0.04-0.5,0.26-0.57c0.29-0.13,0.66-0.16,1.16-0.07c0.59,0.07,1.55,0.32,2.86,0.74
		c2.41,0.77,4.78,1.49,7.09,2.18c1.45,0.4,2.55,0.72,3.29,0.96c1.01,0.27,2.02,0.55,3.02,0.82c4.37,0.97,8.45,1.8,12.23,2.5
		c3.32,0.52,6.46,0.98,9.42,1.39c1.21,0.16,1.99,0.26,2.36,0.35c0.16,0.06,0.37,0.12,0.65,0.19s0.49,0.17,0.64,0.3
		c0.23,0.14,0.4,0.3,0.48,0.5c0.1,0.16,0.21,0.41,0.31,0.76c1.04,3.19,2.16,6.41,3.37,9.66c0.17,0.42,0.17,0.72,0,0.87
		c-0.13,0.07-0.33,0.11-0.59,0.1c-0.89-0.04-1.8-0.08-2.71-0.13C66.53,77.08,66,77,65.61,76.9c-0.45-0.03-0.91-0.06-1.37-0.09
		c-0.27-0.02-0.4,0.04-0.34,0.21c0.01,0.04,0.02,0.1,0.04,0.19c-0.01,0.04,0,0.1,0.04,0.19c0.49,1.03,1,2.07,1.51,3.11
		c0.32,0.64,0.54,1.13,0.69,1.47c0.64,1.24,2.02,3.96,4.21,8.18c0.33,0.64,0.67,1.28,1,1.93c0.95,1.8,1.63,3.1,2.04,3.91
		c1.11,2.01,2.19,4,3.25,5.98c0.74,1.42,1.08,2.34,1.04,2.79c-0.11,0.27-0.19,0.44-0.25,0.51c-0.19,0.09-0.39,0.17-0.58,0.26
		c-0.64,0.21-1.06,0.41-1.27,0.58c-0.85,0.31-1.69,0.61-2.54,0.92C72.77,107.19,72.19,107.41,71.32,107.68L71.32,107.68"/>
	<path d="M92.12,101.88c-0.12,0.04-0.3,0.06-0.53,0.08c-0.13-0.03-0.31,0-0.54,0.08c-0.58,0.22-1.41,0.18-2.48-0.11
		c-0.05,0.01-0.11,0.03-0.16,0.06c-0.11,0.03-0.25,0-0.43-0.1c-0.06-0.06-0.12-0.1-0.18-0.13c-0.07-0.05-0.15-0.12-0.26-0.22
		c-0.24-0.15-0.48-0.31-0.73-0.48c-0.72-0.47-1.47-1.2-2.29-2.21c-0.85-1.07-1.69-2.26-2.51-3.61c-1.59-2.5-3-5.15-4.15-7.89
		c-1.27-3.07-2.08-6.01-2.4-8.82c-0.23-2.92,0.11-5.16,0.97-6.77c0.98-1.74,2.41-2.53,4.21-2.43c0.56,0.03,1,0.08,1.32,0.17
		c-0.02-0.08,0-0.11,0.07-0.1c0.04,0,0.07,0,0.1,0c1.61,0.07,3.03,0.21,4.3,0.43c1.09,0.27,2.16,0.78,3.2,1.55
		c2.12,1.82,3.76,3.8,4.95,5.94c1.26,2.38,2.23,5.19,2.93,8.43c0.71,3.23,0.98,6.28,0.82,9.12c-0.02,0.27-0.04,0.55-0.07,0.82
		c-0.02,0.21-0.04,0.3-0.06,0.3c-0.01,0.09-0.01,0.18-0.02,0.26c-0.04,0.07-0.08,0.14-0.13,0.22c-0.21,2.19-0.95,3.68-2.2,4.46
		C95,101.34,93.73,101.54,92.12,101.88C92.12,101.88,92.12,101.88,92.12,101.88 M91.37,97.98c0.14-0.03,0.21-0.24,0.18-0.62
		c0.01-0.64-0.17-1.83-0.57-3.6c-0.07-0.3-0.23-0.99-0.48-2.05c-0.24-1.07-0.5-2.07-0.76-3c-0.62-2.35-1.01-3.81-1.17-4.36
		c-0.16-0.54-0.32-1.08-0.47-1.62c-0.37-1.25-0.71-2.33-1.03-3.23c-0.46-1.43-0.91-2.56-1.33-3.4c-0.31-0.42-0.52-0.63-0.63-0.63
		c-0.21-0.01-0.35,0.26-0.39,0.78c-0.05,0.53,0.08,1.49,0.39,2.91c0.64,2.82,1.3,5.64,1.99,8.47c0.19,0.58,0.37,1.16,0.56,1.75
		c0.53,1.45,0.86,2.4,1.01,2.86c0.15,0.4,0.31,0.81,0.46,1.23c0.2,0.55,0.4,1.09,0.6,1.64c0.09,0.26,0.19,0.51,0.29,0.7
		c0.29,0.61,0.58,1.22,0.87,1.82c0.06,0.14,0.13,0.23,0.22,0.29C91.21,97.96,91.3,97.99,91.37,97.98
		C91.37,97.98,91.37,97.98,91.37,97.98"/>
	<path d="M105.75,100.58c-0.15,0-0.28-0.05-0.37-0.11c-0.33-0.01-0.67-0.01-1-0.02c-0.35-0.17-0.7-0.33-1.05-0.5
		c-0.05-0.12-0.09-0.24-0.14-0.35c-0.03-0.17-0.07-0.35-0.1-0.53c-0.11-0.47-0.21-0.93-0.3-1.4c-0.16-0.63-0.28-1.17-0.37-1.62
		c-0.27-1.31-0.53-2.62-0.79-3.92c-0.1-0.38-0.21-0.9-0.33-1.54c-0.31-1.59-0.58-3.11-0.81-4.57c-0.16-0.96-0.43-2.5-0.83-4.6
		c-0.07-0.35-0.15-0.64-0.23-0.87c-0.03-0.17-0.07-0.34-0.1-0.51c-0.03-0.1-0.05-0.2-0.08-0.31c-0.15-0.78-0.27-1.54-0.35-2.29
		c-0.16-0.9-0.32-1.79-0.47-2.68c-0.09-0.41-0.17-0.81-0.25-1.22c-0.07-0.39-0.14-0.78-0.21-1.16c-0.09-0.1-0.14-0.22-0.16-0.36
		c-0.09-0.5,0.09-0.87,0.55-1.1c0.26-0.14,0.62-0.2,1.06-0.21c1.53,0,3.05-0.01,4.56-0.02c0.71,0.01,1.41,0.02,2.12,0.03
		c0,0,0.01,0.01,0.04,0.06c0.04,0.03,0.09,0.08,0.14,0.15c0.19,0.26,0.41,0.62,0.63,1.07c0.25,0.51,0.47,1.05,0.67,1.63
		c0.22,0.67,0.64,1.87,1.25,3.58c0.49,1.4,0.88,2.52,1.2,3.35c0.25,0.88,0.48,1.34,0.67,1.34c0.18,0,0.29-0.23,0.34-0.67
		c0.02-0.07,0.06-0.3,0.1-0.67c0.09-0.63,0.17-1.27,0.26-1.9c0.02-0.14,0.11-0.66,0.26-1.54c0.04-0.18,0.15-0.8,0.32-1.86
		c0.09-0.55,0.19-1.1,0.29-1.65c0.02-0.2,0.05-0.46,0.11-0.77c0.05-0.31,0.11-0.61,0.19-0.88c0.15-0.56,0.28-0.92,0.39-1.08
		c0.03-0.15,0.08-0.21,0.17-0.21c0.7-0.03,1.4-0.05,2.1-0.06c1.85,0,3.7,0.01,5.55,0.02c0.08,0.03,0.27,0.05,0.56,0.05
		c0.02,0,0.08,0.22,0.17,0.68c0.16,1.77,0.27,3.18,0.33,4.26c0.1,1.31,0.23,3.3,0.36,5.96c0.04,0.87,0.08,1.73,0.11,2.59
		c0.07,1.56,0.07,3.78,0.03,6.69c0.01,0.52,0.03,1.04,0.05,1.55c0.03,0.45,0.06,1.07,0.09,1.86c0.03,0.73,0.06,1.47,0.09,2.2
		c0.02,0.4,0.05,0.96,0.07,1.66c0.01,0.63,0.03,1.04,0.06,1.25c0.01,0.17,0.01,0.35,0.01,0.52c-0.03,0.12-0.05,0.24-0.07,0.36
		c-0.35,0.15-0.7,0.31-1.05,0.47c-0.35,0-0.69,0-1.03-0.01c-0.1,0.06-0.22,0.1-0.37,0.1c-0.66-0.01-1.34-0.08-2.03-0.19
		c-0.7-0.16-1.13-0.25-1.3-0.28c-0.03,0.01-0.07,0.03-0.1,0.05c-0.04,0-0.08,0-0.12,0c-0.1,0-0.18-0.34-0.24-1.01
		c-0.16-0.89-0.37-2.89-0.62-5.98c-0.11-0.86-0.22-2.03-0.34-3.51c-0.02-0.25-0.1-0.38-0.23-0.38c-0.05,0-0.1,0.14-0.13,0.42
		c-0.16,1.24-0.26,2.02-0.29,2.33c-0.03,0.36-0.06,0.72-0.09,1.09c-0.05,0.27-0.09,0.54-0.14,0.81c-0.18,1.39-0.41,2.45-0.7,3.22
		c-0.18,0.44-0.38,0.66-0.62,0.65c-0.27,0-0.53,0-0.79-0.01c-0.23,0-0.39-0.02-0.49-0.05c-0.19,0-0.33-0.03-0.42-0.06
		c-0.84-1.88-1.67-3.96-2.5-6.2c-0.13-0.42-0.25-0.77-0.36-1.04c-0.09-0.28-0.17-0.52-0.23-0.73c-0.18-0.35-0.27-0.52-0.27-0.52
		c-0.13,0-0.17,0.12-0.14,0.37c0.1,0.69,0.2,1.37,0.29,2.06c0.3,2.11,0.51,3.63,0.62,4.55c0.22,1.5,0.32,2.6,0.33,3.34
		c0,0.14-0.01,0.26-0.02,0.37c-0.01,0.1-0.03,0.15-0.06,0.15c-0.04,0-0.08,0-0.12,0c-0.04-0.02-0.08-0.04-0.11-0.05
		c-0.15,0.02-0.55,0.1-1.21,0.24C107.1,100.54,106.43,100.59,105.75,100.58L105.75,100.58"/>
	<path d="M126.44,100.74c-0.36,0-0.53-0.59-0.49-1.77c-0.01-0.41,0.03-0.88,0.11-1.39c0-0.25,0.01-0.44,0.02-0.58
		c0.01-0.17,0.02-0.31,0.02-0.41c0.18-1.89,0.38-3.76,0.59-5.61c0.22-1.85,0.44-3.69,0.68-5.51c0.29-2.29,0.58-4.57,0.87-6.86
		c0.29-2.29,0.57-4.57,0.85-6.86c0-0.07,0.03-0.15,0.09-0.26c0.06-0.1,0.12-0.19,0.18-0.25c0.07,0,0.15,0,0.22,0.01
		c0.26,0,0.46-0.04,0.6-0.14c0.13-0.04,0.35-0.05,0.67-0.04c0.51,0.02,0.9,0.04,1.16,0.09c0.38,0.11,0.78,0.17,1.19,0.18
		c0.56,0,1.12,0,1.67,0c0.18-0.06,0.38-0.09,0.62-0.08c0.47-0.02,0.95-0.04,1.43-0.05c0.35,0.01,0.71,0.02,1.07,0.03
		c0.41,0.02,0.82,0.04,1.22,0.09c0.31,0.01,0.61,0.03,0.92,0.04c0.21,0.03,0.54,0.06,0.95,0.08c0.42,0.01,0.84,0.03,1.27,0.04
		c0.06,0,0.13,0.02,0.2,0.06c0.06,0.03,0.12,0.06,0.16,0.11c0.09,0.06,0.2,0.1,0.34,0.11c0.09,0,0.19,0,0.3,0.01
		c0.15,0.16,0.23,0.34,0.23,0.51c0.37,2.23,0.72,4.47,1.05,6.7c0.31,2.23,0.6,4.47,0.88,6.71c0.23,2.15,0.42,4.14,0.57,5.96
		c0.15,1.83,0.26,3.5,0.35,5c-0.01,0.16-0.01,0.49,0.02,0.97c0.03,0.68,0.03,1.23,0.01,1.63c-0.02,0.25-0.06,0.58-0.13,0.99
		c-0.12,0.34-0.26,0.51-0.44,0.51c-0.11,0-0.21,0-0.32,0c-0.25,0-0.44-0.02-0.58-0.05c-0.58,0-1.16,0-1.74,0
		c-0.13,0-0.21-0.02-0.23-0.05c-0.53,0-1.07,0-1.6-0.01c-0.01-0.03-0.01-0.07-0.02-0.11c-0.04-0.06-0.1-0.09-0.17-0.09
		c-0.03,0.03-0.06,0.06-0.09,0.09c-0.01,0.07-0.02,0.11-0.06,0.11c-0.1,0-0.2,0-0.29,0c-0.1-0.07-0.27-0.11-0.52-0.11
		c-0.47-0.06-0.86-0.09-1.16-0.09c-0.2-0.8-0.41-2.53-0.65-5.2c-0.42,0.1-0.9,0.14-1.43,0.13c-0.51,0-1.01,0-1.52,0
		c-0.08,0.51-0.14,0.94-0.16,1.28c-0.01,0.18-0.1,0.77-0.24,1.77c-0.14,0.99-0.27,1.66-0.39,2.01c-0.06,0.03-0.12,0.06-0.17,0.09
		c-0.06,0.05-0.11,0.08-0.15,0.12c-0.04,0-0.06,0-0.06,0c-0.01,0-0.03,0-0.05,0c-0.12,0-0.19-0.04-0.24-0.12
		c-0.07-0.06-0.12-0.09-0.14-0.09c-0.37,0.03-0.73,0.06-1.1,0.09c-0.27,0-0.54,0-0.81,0c-0.1,0.04-0.18,0.07-0.23,0.11
		c-0.06,0-0.1,0-0.12,0c-0.85,0-1.7,0-2.55,0c-0.17,0.03-0.53,0.05-1.07,0.05c-0.23,0-0.46,0-0.69,0c-0.12,0.03-0.3,0.05-0.55,0.05
		C126.68,100.74,126.56,100.74,126.44,100.74C126.44,100.74,126.44,100.74,126.44,100.74 M138.31,89.74
		c-0.1-1.16-0.16-1.83-0.17-2.05c-0.07-0.81-0.14-1.63-0.21-2.45c-0.04-0.48-0.07-0.91-0.11-1.28c-0.04-0.41-0.06-0.79-0.08-1.13
		c-0.06-0.41-0.11-0.79-0.15-1.13c-0.01-0.37-0.04-0.71-0.08-1.02c-0.02-0.2-0.05-0.46-0.06-0.77c-0.02-0.35-0.05-0.58-0.1-0.72
		c-0.02-0.2-0.04-0.4-0.06-0.61c0-0.14-0.02-0.26-0.06-0.36c-0.01-0.1-0.03-0.2-0.04-0.31c-0.04,0.21-0.06,0.31-0.06,0.31
		c0,0.11,0,0.23,0,0.36c0,0.03-0.01,0.1-0.03,0.2c-0.02,0.06-0.05,0.2-0.07,0.41c-0.01,0.16-0.04,0.39-0.06,0.66
		c-0.02,0.24-0.05,0.51-0.1,0.82c-0.08,0.69-0.16,1.39-0.23,2.09c-0.09,0.79-0.17,1.57-0.26,2.36c-0.04,0.37-0.08,0.75-0.11,1.12
		c-0.04,0.27-0.08,0.72-0.13,1.34c-0.2,1.54-0.29,2.23-0.27,2.1c0.45,0.01,0.89,0.01,1.34,0.01c0.02-0.04,0.05-0.07,0.09-0.1
		c0.05-0.07,0.08-0.11,0.1-0.11c0.03,0,0.06,0,0.09,0c0.1,0,0.18,0.02,0.24,0.06c0.08,0.03,0.16,0.07,0.22,0.11
		C138.07,89.71,138.19,89.74,138.31,89.74L138.31,89.74"/>
	<path d="M153.28,100.87c-0.12-0.48-0.13-1.34-0.02-2.61c0.06-1.1,0.23-2.73,0.5-4.86c0.25-1.86,0.48-3.72,0.71-5.57
		c0.18-1.36,0.42-3.49,0.71-6.41c-0.03-0.05-0.06-0.1-0.09-0.15c-1.13-0.01-2.25-0.03-3.38-0.04c-0.49-0.01-0.76-0.86-0.82-2.53
		c-0.04-0.9-0.02-2.23,0.06-3.96c0.01-0.22,0.02-0.44,0.03-0.65c0.05-0.24,0.09-0.59,0.1-1.09c0.01-0.33,0.02-0.67,0.03-1
		c0.02-0.13,0.04-0.27,0.05-0.4c0.05-0.06,0.09-0.12,0.14-0.19c0.21,0.02,0.43,0.04,0.64,0.06c0.23,0.01,0.47,0.01,0.7,0.02
		c1.05,0.02,1.84,0.02,2.4,0c1.23,0.01,2.47,0.03,3.72,0.04c1.27,0.01,2.55,0.01,3.85,0c0.33,0.03,0.81,0.04,1.43,0.03
		c0.33,0,0.66,0,0.99-0.01c0.11-0.07,0.29-0.1,0.53-0.11c0.19-0.07,0.37-0.1,0.53-0.11c0.51-0.01,0.9,0.01,1.16,0.07
		c0.55,0.05,0.96,0.07,1.23,0.07c0.36-0.03,0.72-0.06,1.09-0.09c0.55-0.02,1.11-0.04,1.66-0.07c0.87-0.04,1.46-0.07,1.78-0.04
		c0.21,0,0.41,0,0.62,0.01c0.02,0.03,0.06,0.07,0.11,0.14c0.06,0.03,0.09,0.05,0.08,0.09c-0.44,2.85-0.95,5.72-1.52,8.63
		c-0.05,0.2-0.19,0.43-0.43,0.68c-0.22,0.25-0.42,0.41-0.59,0.49c-0.84-0.22-1.96-0.3-3.35-0.27c-0.49,0.01-0.98,0.02-1.47,0.03
		c-0.39,0-0.74,0.65-1.09,1.95c-0.12,0.36-0.23,0.92-0.36,1.63c-0.09,0.51-0.19,1.03-0.28,1.55c-0.12,0.67-0.2,1.19-0.24,1.53
		c-0.09,0.49-0.19,0.97-0.28,1.46c-0.26,1.4-0.56,2.72-0.88,3.93c-0.22,0.89-0.37,1.55-0.45,1.97c-0.12,0.4-0.25,0.98-0.38,1.7
		c-0.19,1.04-0.36,1.91-0.53,2.6c-0.21,1.08-0.56,1.64-1.04,1.69c-0.53,0.06-0.85,0.11-0.93,0.1c-1.15-0.07-2.29-0.13-3.43-0.2
		C155.44,100.93,154.35,100.89,153.28,100.87C153.28,100.87,153.28,100.87,153.28,100.87"/>
	<path d="M179.4,103.49c-0.18-0.01-0.4-0.07-0.68-0.15c-0.13-0.09-0.35-0.13-0.67-0.15c-0.82-0.05-1.75-0.43-2.78-1.11
		c-0.08-0.01-0.16-0.01-0.23-0.01c-0.16-0.01-0.3-0.1-0.43-0.25c-0.02-0.08-0.06-0.13-0.11-0.18c-0.05-0.07-0.11-0.16-0.16-0.29
		c-0.17-0.22-0.34-0.45-0.51-0.68c-0.5-0.65-0.86-1.52-1.08-2.63c-0.21-1.15-0.31-2.39-0.26-3.73c0.03-2.46,0.39-4.95,1.1-7.49
		c0.77-2.82,1.93-5.52,3.53-8.14c1.71-2.76,3.69-5,5.99-6.75c2.66-1.99,5.57-3.21,8.8-3.72c1.06-0.18,1.88-0.29,2.46-0.33
		c0.02-0.07,0.1-0.12,0.24-0.14c0.07-0.01,0.14-0.03,0.21-0.04c3.39-0.63,6.62-1.2,9.61-1.66c2.61-0.34,4.91-0.39,6.75-0.09
		c2.87,1.05,3.48,2.78,2.24,5.09c-1.79,2.65-4.91,6.13-7.93,10.71c-2.95,4.59-6.57,9.07-10.66,13.33c-0.4,0.41-0.8,0.81-1.19,1.21
		c-0.3,0.3-0.45,0.43-0.48,0.44c-0.12,0.13-0.24,0.25-0.35,0.36c-0.16,0.11-0.32,0.22-0.48,0.33c-2.79,2.97-5.2,4.81-7.5,5.66
		C183.39,103.48,181.59,103.62,179.4,103.49L179.4,103.49 M181.47,99.22c0.2,0,0.45-0.22,0.74-0.64c0.57-0.72,1.4-2.1,2.55-4.19
		c0.19-0.36,0.64-1.18,1.36-2.45c0.75-1.28,1.42-2.46,2.04-3.57c1.62-2.81,2.65-4.54,3.01-5.19c0.36-0.63,0.72-1.26,1.07-1.89
		c0.84-1.45,1.5-2.69,1.97-3.69c0.8-1.6,1.24-2.81,1.36-3.66c-0.16-0.38-0.35-0.55-0.56-0.51c-0.44,0.08-0.98,0.43-1.63,1.06
		c-0.64,0.63-1.43,1.71-2.37,3.28c-1.92,3.15-3.8,6.32-5.65,9.5c-0.31,0.65-0.61,1.31-0.92,1.96c-0.67,1.65-1.11,2.73-1.34,3.25
		c-0.18,0.46-0.36,0.93-0.54,1.41c-0.23,0.63-0.46,1.25-0.68,1.88c-0.12,0.3-0.22,0.58-0.26,0.82c-0.16,0.71-0.31,1.43-0.46,2.14
		c-0.04,0.17-0.03,0.28,0.04,0.37C181.28,99.17,181.37,99.22,181.47,99.22L181.47,99.22"/>
	<path class="st0" d="M66.33,103.84c-0.32,0.05-0.98-0.4-2.02-1.35c-1.96-1.66-5.21-4.82-9.74-9.49c-4.29-4.5-8.85-9.69-13.18-15.45
		c-1.2-1.84-2.94-4.64-5.05-8.37c-0.15-0.12-0.29-0.24-0.42-0.36c-3.27-0.69-6.51-1.37-9.72-2.03c-0.73-0.14-1.5-0.64-2.29-1.48
		c-0.76-0.89-1.6-2.08-2.46-3.53c-1.04-1.69-2.26-4.08-3.68-7.14c-0.18-0.38-0.36-0.76-0.54-1.15c-0.26-0.55-0.42-0.97-0.53-1.29
		c-0.3-0.65-0.6-1.31-0.91-1.96c-0.15-0.33-0.1-0.56,0.16-0.67c0.26-0.15,0.63-0.17,1.16-0.06c0.65,0.13,1.73,0.5,3.21,1.09
		c2.76,1.07,5.44,2.08,8.05,3.01c1.63,0.54,2.85,0.95,3.66,1.24c1.12,0.35,2.23,0.7,3.33,1.03c4.8,1.21,9.25,2.23,13.36,3.07
		c3.58,0.62,6.96,1.17,10.13,1.66c1.28,0.19,2.1,0.32,2.5,0.43c0.17,0.05,0.39,0.12,0.68,0.21c0.29,0.07,0.52,0.18,0.67,0.31
		c0.24,0.15,0.4,0.31,0.48,0.51c0.1,0.16,0.2,0.42,0.29,0.76c0.94,3.21,1.99,6.44,3.14,9.71c0.16,0.43,0.14,0.72-0.05,0.87
		c-0.15,0.06-0.37,0.09-0.66,0.07c-0.99-0.09-1.99-0.18-3-0.27c-0.75-0.08-1.34-0.19-1.77-0.31c-0.51-0.05-1.02-0.11-1.53-0.17
		c-0.32-0.04-0.46,0.01-0.42,0.19c0.02,0.04,0.03,0.1,0.04,0.18c-0.02,0.04-0.01,0.1,0.03,0.19c0.47,1.04,0.96,2.09,1.47,3.15
		c0.32,0.65,0.55,1.14,0.7,1.49c0.64,1.25,2.06,4.03,4.38,8.36c0.35,0.66,0.71,1.32,1.08,1.99c1.04,1.86,1.8,3.2,2.25,4.04
		c1.26,2.09,2.5,4.17,3.73,6.23c0.86,1.48,1.27,2.43,1.23,2.88c-0.12,0.26-0.21,0.43-0.28,0.51c-0.22,0.07-0.44,0.15-0.67,0.22
		c-0.73,0.17-1.22,0.34-1.47,0.5c-1.01,0.24-2.04,0.48-3.07,0.72C68.21,103.5,67.47,103.66,66.33,103.84L66.33,103.84"/>
	<path class="st0" d="M89.72,99.22c-0.12,0.04-0.31,0.05-0.56,0.06c-0.14-0.04-0.33-0.02-0.57,0.05c-0.61,0.19-1.49,0.12-2.64-0.22
		c-0.05,0.02-0.11,0.04-0.17,0.05c-0.11,0.04-0.27,0-0.46-0.11c-0.06-0.07-0.12-0.11-0.19-0.14c-0.08-0.05-0.16-0.13-0.28-0.23
		c-0.26-0.17-0.52-0.34-0.79-0.51c-0.78-0.51-1.6-1.28-2.49-2.33c-0.93-1.11-1.85-2.36-2.75-3.75c-1.74-2.6-3.26-5.33-4.48-8.14
		c-1.34-3.14-2.14-6.12-2.4-8.94c-0.16-2.92,0.27-5.15,1.23-6.72c1.08-1.7,2.6-2.44,4.48-2.28c0.59,0.04,1.04,0.11,1.37,0.21
		c-0.02-0.08,0.01-0.1,0.08-0.1c0.04,0,0.08,0,0.11,0.01c1.66,0.12,3.14,0.29,4.44,0.54c1.13,0.29,2.23,0.83,3.3,1.61
		c2.18,1.84,3.87,3.83,5.09,5.98c1.3,2.38,2.31,5.18,3.05,8.42c0.75,3.23,1.04,6.27,0.9,9.11c-0.02,0.27-0.04,0.55-0.06,0.82
		c-0.02,0.21-0.04,0.3-0.06,0.3c-0.01,0.09-0.01,0.17-0.02,0.26c-0.05,0.07-0.09,0.14-0.13,0.21c-0.21,2.19-0.94,3.68-2.22,4.51
		C92.64,98.36,91.38,98.78,89.72,99.22L89.72,99.22 M88.86,95.21c0.16-0.03,0.22-0.25,0.18-0.64c0-0.66-0.2-1.89-0.64-3.71
		c-0.08-0.31-0.26-1.02-0.53-2.1c-0.27-1.1-0.54-2.11-0.82-3.05c-0.66-2.4-1.07-3.88-1.24-4.44c-0.17-0.55-0.33-1.1-0.49-1.64
		c-0.38-1.27-0.73-2.37-1.06-3.28c-0.48-1.44-0.94-2.59-1.37-3.44c-0.33-0.42-0.54-0.64-0.66-0.64c-0.22-0.01-0.36,0.25-0.42,0.77
		c-0.05,0.53,0.08,1.5,0.39,2.93c0.67,2.87,1.36,5.74,2.07,8.61c0.2,0.59,0.4,1.19,0.6,1.78c0.57,1.49,0.93,2.46,1.08,2.93
		c0.17,0.42,0.33,0.84,0.5,1.27c0.22,0.57,0.44,1.13,0.66,1.69c0.09,0.27,0.2,0.52,0.3,0.73c0.32,0.63,0.64,1.25,0.95,1.88
		c0.07,0.14,0.14,0.24,0.23,0.3C88.7,95.2,88.8,95.23,88.86,95.21L88.86,95.21"/>
	<path class="st0" d="M103.66,97.42c-0.15,0-0.28-0.04-0.38-0.11c-0.34,0-0.68,0-1.03-0.01c-0.35-0.17-0.71-0.33-1.07-0.5
		c-0.05-0.11-0.1-0.23-0.15-0.35c-0.04-0.17-0.08-0.35-0.11-0.52c-0.11-0.47-0.22-0.93-0.32-1.39c-0.17-0.62-0.3-1.16-0.39-1.61
		c-0.29-1.31-0.57-2.61-0.85-3.9c-0.1-0.38-0.21-0.89-0.35-1.54c-0.33-1.57-0.61-3.09-0.86-4.55c-0.16-0.96-0.45-2.49-0.88-4.59
		c-0.07-0.34-0.15-0.63-0.23-0.86c-0.03-0.17-0.07-0.34-0.1-0.51c-0.03-0.1-0.06-0.2-0.09-0.31c-0.16-0.78-0.28-1.54-0.36-2.28
		c-0.17-0.89-0.34-1.78-0.5-2.67c-0.09-0.41-0.17-0.81-0.26-1.21c-0.07-0.39-0.15-0.78-0.22-1.16c-0.08-0.1-0.14-0.22-0.16-0.35
		c-0.1-0.5,0.09-0.87,0.56-1.1c0.27-0.14,0.64-0.2,1.09-0.2c1.55,0,3.1-0.01,4.65-0.03c0.72,0.01,1.44,0.02,2.16,0.03
		c0,0,0.01,0.01,0.04,0.05c0.04,0.03,0.09,0.08,0.15,0.15c0.2,0.26,0.41,0.61,0.64,1.06c0.26,0.5,0.49,1.04,0.69,1.62
		c0.24,0.67,0.67,1.86,1.31,3.56c0.5,1.39,0.91,2.51,1.24,3.33c0.27,0.88,0.5,1.33,0.7,1.33c0.18,0,0.29-0.22,0.34-0.66
		c0.02-0.07,0.05-0.3,0.09-0.67c0.09-0.63,0.17-1.27,0.26-1.9c0.02-0.14,0.1-0.65,0.24-1.54c0.04-0.17,0.15-0.79,0.32-1.85
		c0.09-0.55,0.18-1.09,0.28-1.64c0.01-0.21,0.05-0.47,0.1-0.78c0.05-0.31,0.11-0.61,0.19-0.87c0.15-0.56,0.28-0.92,0.39-1.09
		c0.02-0.15,0.08-0.21,0.16-0.21c0.71-0.03,1.42-0.05,2.13-0.08c1.87-0.01,3.74-0.02,5.61-0.02c0.08,0.03,0.27,0.05,0.57,0.05
		c0.02,0,0.08,0.22,0.17,0.68c0.18,1.77,0.3,3.19,0.37,4.27c0.12,1.31,0.27,3.3,0.43,5.97c0.05,0.86,0.09,1.72,0.14,2.59
		c0.09,1.55,0.12,3.78,0.11,6.68c0.03,0.52,0.05,1.04,0.07,1.55c0.04,0.45,0.08,1.07,0.11,1.86c0.04,0.73,0.08,1.46,0.12,2.19
		c0.03,0.41,0.07,0.97,0.09,1.67c0.02,0.62,0.04,1.04,0.07,1.24c0.01,0.17,0.01,0.35,0.02,0.53c-0.03,0.11-0.05,0.23-0.07,0.35
		c-0.33,0.15-0.67,0.31-1,0.47c-0.35-0.01-0.69-0.01-1.03-0.02c-0.1,0.06-0.23,0.1-0.38,0.1c-0.68-0.01-1.38-0.08-2.09-0.19
		c-0.72-0.16-1.16-0.25-1.34-0.28c-0.03,0.01-0.07,0.03-0.1,0.05c-0.04,0-0.08,0-0.12,0c-0.11,0-0.19-0.34-0.25-1
		c-0.18-0.9-0.41-2.89-0.7-5.97c-0.12-0.86-0.25-2.03-0.39-3.51c-0.02-0.25-0.1-0.36-0.23-0.36c-0.06,0-0.1,0.13-0.13,0.41
		c-0.16,1.23-0.24,2.01-0.27,2.32c-0.03,0.35-0.05,0.71-0.08,1.08c-0.05,0.27-0.09,0.54-0.13,0.82c-0.18,1.38-0.41,2.44-0.69,3.21
		c-0.18,0.44-0.39,0.65-0.63,0.65c-0.27-0.01-0.55-0.01-0.82-0.01c-0.23-0.01-0.39-0.02-0.5-0.05c-0.19-0.01-0.34-0.03-0.43-0.06
		c-0.87-1.88-1.74-3.94-2.61-6.18c-0.14-0.41-0.26-0.77-0.38-1.03c-0.09-0.28-0.18-0.52-0.24-0.73c-0.19-0.35-0.28-0.51-0.28-0.51
		c-0.13,0-0.17,0.11-0.14,0.36c0.11,0.68,0.21,1.36,0.32,2.05c0.32,2.1,0.54,3.62,0.67,4.54c0.23,1.49,0.35,2.59,0.36,3.32
		c0,0.14-0.01,0.26-0.02,0.37c-0.01,0.1-0.02,0.15-0.06,0.15c-0.04,0-0.08,0-0.12,0c-0.04-0.02-0.08-0.04-0.12-0.06
		c-0.15,0.03-0.56,0.11-1.24,0.24C105.05,97.38,104.36,97.44,103.66,97.42L103.66,97.42"/>
	<path class="st0" d="M124.62,97.62c-0.37,0-0.53-0.59-0.48-1.78c-0.01-0.4,0.02-0.87,0.11-1.39c-0.01-0.25,0-0.43,0.01-0.57
		c0.01-0.17,0.02-0.31,0.02-0.41c0.17-1.89,0.36-3.76,0.56-5.61c0.2-1.85,0.41-3.69,0.63-5.51c0.27-2.29,0.53-4.58,0.8-6.87
		c0.27-2.29,0.53-4.59,0.79-6.89c0-0.07,0.03-0.16,0.08-0.26c0.06-0.1,0.12-0.19,0.18-0.25c0.07,0,0.15,0,0.23,0
		c0.25,0.01,0.46-0.04,0.6-0.14c0.13-0.04,0.35-0.04,0.67-0.03c0.51,0.01,0.9,0.03,1.16,0.08c0.39,0.12,0.79,0.18,1.19,0.2
		c0.56-0.01,1.12-0.01,1.68,0c0.17-0.07,0.37-0.09,0.61-0.08c0.48-0.02,0.96-0.04,1.43-0.05c0.36,0.01,0.72,0.03,1.08,0.04
		c0.41,0.02,0.82,0.04,1.21,0.1c0.31,0.01,0.61,0.03,0.92,0.04c0.22,0.04,0.55,0.07,0.96,0.09c0.42,0.01,0.84,0.03,1.26,0.05
		c0.07,0,0.14,0.01,0.2,0.06c0.07,0.03,0.12,0.06,0.17,0.1c0.09,0.07,0.2,0.11,0.34,0.12c0.09,0,0.19,0,0.3,0.01
		c0.15,0.17,0.23,0.34,0.24,0.52c0.4,2.24,0.79,4.48,1.16,6.72c0.35,2.23,0.68,4.47,0.99,6.71c0.27,2.16,0.49,4.15,0.67,5.97
		c0.18,1.83,0.32,3.49,0.42,4.99c-0.01,0.17,0,0.5,0.04,0.98c0.04,0.67,0.05,1.22,0.02,1.62c-0.01,0.25-0.05,0.58-0.12,0.99
		c-0.12,0.33-0.26,0.51-0.44,0.51c-0.11,0-0.21,0-0.32,0c-0.26,0-0.46-0.02-0.59-0.06c-0.59,0-1.19,0-1.78,0
		c-0.13,0-0.22-0.02-0.23-0.05c-0.55,0-1.09,0-1.62-0.01c-0.01-0.03-0.02-0.07-0.03-0.11c-0.04-0.06-0.1-0.09-0.18-0.09
		c-0.03,0.03-0.06,0.06-0.09,0.09c0,0.07-0.02,0.11-0.06,0.11c-0.1,0-0.2,0-0.29,0c-0.1-0.07-0.28-0.11-0.53-0.11
		c-0.47-0.07-0.87-0.1-1.18-0.1c-0.2-0.79-0.43-2.52-0.69-5.2c-0.42,0.1-0.91,0.14-1.45,0.14c-0.51-0.01-1.02-0.01-1.53-0.01
		c-0.08,0.51-0.13,0.94-0.15,1.28c-0.02,0.18-0.1,0.77-0.24,1.77c-0.14,0.99-0.27,1.66-0.38,2.01c-0.06,0.03-0.12,0.06-0.18,0.09
		c-0.06,0.04-0.1,0.07-0.15,0.11c-0.04,0-0.05,0-0.05,0c-0.02,0-0.04,0-0.06,0c-0.12,0-0.2-0.04-0.24-0.11
		c-0.07-0.06-0.13-0.09-0.15-0.09c-0.37,0.03-0.74,0.06-1.11,0.09c-0.27-0.01-0.55-0.01-0.82-0.01c-0.1,0.04-0.18,0.07-0.23,0.12
		c-0.06,0-0.1,0-0.12,0c-0.86-0.01-1.72-0.01-2.57-0.01c-0.18,0.03-0.54,0.05-1.08,0.05c-0.23-0.01-0.47-0.01-0.7-0.01
		c-0.11,0.03-0.3,0.05-0.55,0.05C124.85,97.62,124.73,97.62,124.62,97.62L124.62,97.62 M136.52,86.66c-0.12-1.17-0.19-1.85-0.2-2.06
		c-0.08-0.82-0.16-1.64-0.24-2.46c-0.04-0.48-0.08-0.91-0.12-1.28c-0.05-0.41-0.08-0.79-0.1-1.13c-0.06-0.41-0.11-0.79-0.16-1.13
		c-0.02-0.38-0.05-0.72-0.1-1.03c-0.02-0.21-0.05-0.46-0.07-0.77c-0.02-0.35-0.06-0.59-0.1-0.72c-0.03-0.21-0.05-0.41-0.07-0.62
		c0-0.14-0.02-0.25-0.07-0.36c-0.01-0.1-0.03-0.2-0.04-0.31c-0.04,0.21-0.06,0.31-0.06,0.31c0.01,0.11,0.01,0.23,0.01,0.36
		c0,0.03-0.01,0.1-0.03,0.2c-0.02,0.06-0.04,0.21-0.06,0.41c-0.02,0.17-0.04,0.39-0.06,0.67c-0.01,0.23-0.04,0.51-0.09,0.82
		c-0.07,0.69-0.13,1.39-0.2,2.09c-0.08,0.79-0.16,1.57-0.24,2.36c-0.03,0.38-0.07,0.76-0.1,1.13c-0.04,0.27-0.08,0.72-0.12,1.33
		c-0.18,1.54-0.26,2.24-0.25,2.11c0.45,0.01,0.91,0.01,1.36,0.01c0.02-0.04,0.05-0.07,0.09-0.1c0.04-0.07,0.07-0.1,0.09-0.1
		c0.03,0,0.06,0,0.09,0c0.11,0,0.19,0.01,0.25,0.06c0.08,0.03,0.15,0.06,0.22,0.1C136.27,86.61,136.39,86.66,136.52,86.66
		L136.52,86.66"/>
	<path class="st0" d="M151.86,97.8c-0.13-0.48-0.15-1.34-0.07-2.6c0.04-1.11,0.18-2.74,0.41-4.87c0.21-1.85,0.4-3.71,0.59-5.56
		c0.15-1.35,0.34-3.47,0.56-6.38c-0.03-0.05-0.06-0.11-0.09-0.16c-1.13-0.01-2.26-0.03-3.39-0.05c-0.5-0.01-0.79-0.86-0.88-2.53
		c-0.05-0.9-0.06-2.22-0.02-3.95c0-0.22,0-0.44,0.01-0.65c0.05-0.24,0.08-0.6,0.08-1.1c0.01-0.33,0.01-0.66,0.01-0.99
		c0.01-0.13,0.03-0.27,0.04-0.4c0.05-0.07,0.09-0.13,0.14-0.19c0.21,0.02,0.42,0.04,0.63,0.07c0.23,0.01,0.47,0.01,0.7,0.02
		c1.04,0.03,1.83,0.03,2.38,0.02c1.22,0.03,2.45,0.05,3.69,0.08c1.25,0.01,2.52,0.03,3.8,0.04c0.33,0.03,0.81,0.05,1.42,0.05
		c0.33-0.01,0.65-0.01,0.98-0.01c0.1-0.07,0.28-0.1,0.51-0.1c0.19-0.07,0.36-0.1,0.52-0.1c0.5-0.01,0.89,0.02,1.15,0.08
		c0.54,0.05,0.94,0.08,1.21,0.08c0.35-0.03,0.71-0.05,1.06-0.08c0.55-0.01,1.09-0.03,1.63-0.04c0.85-0.03,1.43-0.05,1.74-0.02
		c0.2,0,0.4,0.01,0.6,0.02c0.03,0.03,0.07,0.07,0.12,0.14c0.06,0.03,0.09,0.05,0.08,0.09c-0.29,2.79-0.64,5.6-1.07,8.45
		c-0.03,0.21-0.17,0.42-0.4,0.67c-0.2,0.24-0.39,0.4-0.56,0.48c-0.85-0.22-1.97-0.3-3.36-0.27c-0.49,0.01-0.98,0.01-1.47,0.02
		c-0.39,0.01-0.72,0.64-1.02,1.93c-0.1,0.36-0.2,0.91-0.31,1.61c-0.07,0.51-0.15,1.02-0.22,1.53c-0.11,0.67-0.17,1.18-0.21,1.53
		c-0.07,0.47-0.15,0.95-0.23,1.42c-0.23,1.4-0.51,2.7-0.8,3.9c-0.21,0.88-0.34,1.54-0.41,1.95c-0.12,0.4-0.24,0.98-0.37,1.69
		c-0.18,1.03-0.35,1.89-0.51,2.57c-0.2,1.07-0.56,1.63-1.05,1.68c-0.54,0.07-0.85,0.12-0.94,0.11c-1.15-0.05-2.29-0.09-3.42-0.13
		C154.03,97.83,152.94,97.82,151.86,97.8L151.86,97.8"/>
	<path class="st0" d="M178.53,100.01c-0.19,0-0.42-0.06-0.71-0.13c-0.13-0.09-0.37-0.13-0.71-0.14c-0.85-0.03-1.81-0.39-2.89-1.05
		c-0.09,0-0.17,0-0.24-0.01c-0.16,0-0.31-0.08-0.45-0.23c-0.02-0.08-0.06-0.14-0.12-0.18c-0.05-0.07-0.11-0.16-0.16-0.28
		c-0.19-0.22-0.37-0.44-0.54-0.67c-0.52-0.64-0.91-1.49-1.15-2.59c-0.25-1.12-0.38-2.34-0.37-3.66c-0.04-2.42,0.23-4.87,0.84-7.36
		c0.64-2.76,1.66-5.4,3.11-7.95c1.51-2.68,3.3-4.84,5.41-6.5c2.4-1.88,5.07-3.01,8.1-3.43c0.99-0.15,1.76-0.24,2.32-0.27
		c0.01-0.06,0.08-0.1,0.21-0.13c0.06-0.01,0.12-0.02,0.19-0.03c3.17-0.54,6.21-1.02,9.09-1.42c2.57-0.31,5.01-0.37,7.19-0.13
		c3.96,0.8,5.71,2.28,5.29,4.42c-1.08,2.52-3.87,5.89-7.72,10.15c-3.21,4.4-6.75,8.77-10.67,12.92c-0.38,0.39-0.76,0.78-1.14,1.17
		c-0.29,0.29-0.44,0.42-0.46,0.43c-0.12,0.12-0.23,0.24-0.34,0.36c-0.16,0.1-0.32,0.21-0.48,0.32c-2.79,2.95-5.37,4.86-7.86,5.82
		C182.73,99.89,180.83,100.08,178.53,100.01L178.53,100.01 M180.69,95.72c0.22,0,0.48-0.22,0.78-0.64c0.59-0.72,1.43-2.1,2.56-4.16
		c0.19-0.35,0.62-1.15,1.32-2.39c0.71-1.25,1.34-2.4,1.91-3.47c1.47-2.71,2.38-4.37,2.69-4.99c0.31-0.61,0.61-1.21,0.91-1.8
		c0.69-1.38,1.21-2.56,1.55-3.51c0.57-1.51,0.82-2.65,0.79-3.45c-0.23-0.36-0.46-0.52-0.67-0.49c-0.44,0.08-0.93,0.41-1.49,1
		c-0.56,0.6-1.21,1.62-1.96,3.11c-1.61,3.02-3.24,6.06-4.88,9.13c-0.27,0.63-0.54,1.26-0.81,1.89c-0.6,1.61-1,2.65-1.21,3.16
		c-0.17,0.45-0.33,0.91-0.5,1.38c-0.22,0.61-0.43,1.23-0.64,1.84c-0.12,0.31-0.21,0.58-0.25,0.81c-0.15,0.71-0.29,1.41-0.42,2.12
		c-0.04,0.16-0.03,0.27,0.04,0.35C180.5,95.68,180.59,95.73,180.69,95.72L180.69,95.72"/>
	<path class="st1" d="M51.4,51.49c-2.84-0.39-5.81-0.78-8.92-1.17c-0.73-0.09-1.12-0.48-1.17-1.16c-0.09-0.44,0-1.04,0.26-1.8
		c0.95-2.66,1.77-5.26,2.37-7.8c0.37-2.04,0.67-4.34,0.89-6.9c0.13-2.77,0.17-5.79,0.12-9.02c-0.13-3.37-0.31-6.74-0.53-10.11
		c-0.27-3.24-0.55-6.36-0.84-9.36c-0.05-0.46,0-0.8,0.15-1.03c0.17-0.25,0.36-0.27,0.59-0.07c1.42,1.32,2.84,2.64,4.26,3.95
		c0.82,0.79,1.83,1.72,3.06,2.84c1.84,1.68,3.27,2.98,4.29,3.87c0.45,0.4,0.91,0.8,1.36,1.19c1.51,1.33,2.71,2.39,3.59,3.2
		c1.52,1.38,3.05,3.13,4.57,5.17c1.78,2.28,3.29,4.69,4.56,7.15c1.51,2.69,2.51,5.3,2.99,8.16c0.47,2.89,0.6,5.34,0.36,7.3
		c-0.2,2.05-0.8,3.7-1.84,4.91s-2.59,1.97-4.69,2.24c-1.06,0.14-2.31,0.17-3.75,0.09c-1.47-0.09-3.16-0.29-5.07-0.62
		C55.87,52.18,53.67,51.83,51.4,51.49L51.4,51.49 M57.66,44.99c0.12,0.05,0.28,0.11,0.48,0.15c0.23,0.05,0.54,0.07,0.93,0.09
		c0.14-0.01,0.23-0.03,0.29-0.05c0.08-0.06,0.14-0.1,0.2-0.12c0.29-0.45,0.51-1.48,0.67-3.09c0.09-1,0.18-2.73,0.23-5.18
		c-0.05-2.12-0.15-3.95-0.28-5.51c-0.03-0.35-0.07-0.71-0.1-1.06c-0.08-0.96-0.27-2.44-0.58-4.45c-0.36-2.04-0.75-3.58-1.15-4.6
		c-0.33-0.73-0.6-1.2-0.82-1.37c-0.22-0.18-0.41-0.3-0.57-0.36c-0.16-0.06-0.27-0.09-0.32-0.09c-0.04,0-0.14,0.01-0.3,0.03
		c0.21,2.35,0.4,4.72,0.59,7.11c0.04,0.64,0.09,1.59,0.13,2.85c0.01,0.47,0.03,0.95,0.06,1.42c0.07,1.97,0.13,3.4,0.18,4.28
		C57.41,38.39,57.53,41.71,57.66,44.99L57.66,44.99"/>
	<path class="st1" d="M81.32,56.96c-0.43-0.05-0.82-0.67-1.18-1.84c-0.17-0.49-0.29-0.92-0.37-1.3c-0.1-0.51-0.18-0.83-0.22-0.95
		c-0.2-0.92-0.53-2.35-0.98-4.27c-0.15-0.57-0.29-1.14-0.42-1.71c-0.6-2.55-0.99-4.34-1.18-5.45c-0.28-1.53-0.55-3-0.81-4.41
		c-0.25-1.27-0.51-2.47-0.76-3.6c-0.03-0.14,0.17-0.15,0.59-0.07c0.22,0.02,0.56,0.08,1,0.16c0.29,0.04,0.6,0.08,0.95,0.12
		c0.34,0.01,0.6,0.01,0.76-0.01c0.37,0.01,0.94-0.04,1.71-0.17c0.04-0.04,0.08-0.08,0.13-0.13c0.53-0.11,1.05-0.24,1.58-0.37
		c0.08,0.06,0.18,0.07,0.27,0.05c0.05-0.01,0.09-0.03,0.14-0.04c0.02-0.03,0.08-0.06,0.18-0.08c0.04-0.04,0.11-0.07,0.21-0.1
		c0.01-0.02,0.04-0.05,0.06-0.05c0.02-0.01,0.04-0.01,0.04-0.01c0.07-0.02,0.16-0.02,0.26,0c0.1,0.01,0.17,0,0.22-0.02
		c0.89-0.25,1.77-0.5,2.66-0.77c0.38,2.29,0.77,4.58,1.17,6.86c0,0.03-0.01,0.13-0.03,0.29c0,0.14,0,0.33,0.02,0.58
		c0.08,0.98,0.17,1.75,0.26,2.34c0.45,2.75,0.91,5.56,1.39,8.44c0.07,0.57,0.13,1.15,0.2,1.73c0.06,0.77,0.15,1.4,0.26,1.9
		c0.11,0.65,0.19,1.18,0.21,1.59c0.05,0.38,0.04,0.67-0.04,0.9c-0.1,0.21-0.3,0.31-0.59,0.31c-0.02-0.01-0.03-0.03-0.04-0.04
		c-0.04-0.02-0.08-0.04-0.12-0.05c-0.04,0-0.06,0.01-0.06,0.04c-0.06,0-0.12,0-0.17,0c-0.13,0.05-0.2,0.1-0.21,0.13
		c-0.12,0-0.39-0.06-0.82-0.17c-0.17-0.03-0.33-0.05-0.5-0.06c-0.12-0.01-0.17,0.04-0.17,0.18c-1.03-0.06-2.07-0.13-3.11-0.2
		c-0.29,0.05-0.58,0.11-0.87,0.16c-0.27,0.02-0.55,0.04-0.82,0.06C81.85,56.94,81.58,56.95,81.32,56.96L81.32,56.96"/>
	<path class="st1" d="M99.94,56.8c-0.23,0.01-0.4-0.02-0.52-0.09c-0.14-0.05-0.27-0.07-0.38-0.07c-0.1,0.01-0.2,0.01-0.3,0.02
		c-0.2-0.16-0.31-0.33-0.33-0.48c-0.77-2.17-1.53-4.31-2.29-6.43c-0.76-2.07-1.52-4.11-2.27-6.13c-0.51-1.43-1.02-2.91-1.53-4.43
		c-0.51-1.49-1.02-3.03-1.54-4.61c-0.01-0.11-0.04-0.22-0.08-0.33c-0.05-0.13-0.09-0.28-0.13-0.42c-0.19-0.6-0.29-1.07-0.34-1.39
		c-0.05-0.34-0.06-0.59-0.03-0.76c0.04-0.31,0.17-0.51,0.41-0.58c0.24-0.07,0.48-0.15,0.72-0.23c0.29-0.05,0.68-0.17,1.18-0.33
		c0.36-0.11,0.72-0.23,1.08-0.34c0.17-0.03,0.33-0.07,0.5-0.11c0.73-0.23,1.45-0.47,2.18-0.71c0.03,0.03,0.07,0.07,0.13,0.11
		c0.07,0.02,0.15,0,0.22-0.02c0,0,0,0,0.03-0.01c0.02-0.04,0.04-0.09,0.06-0.17c0.09-0.04,0.19-0.09,0.28-0.14
		c0.05-0.01,0.09-0.03,0.14-0.04c0.24-0.04,0.58-0.14,1.01-0.28c0.41-0.03,1.03-0.19,1.87-0.46c0.2,0.32,0.51,1.28,0.92,2.9
		c0.19,0.77,0.38,1.55,0.57,2.33c0.12,0.49,0.24,0.99,0.37,1.5c0.09,0.39,0.19,0.78,0.29,1.17c0.06,0.26,0.12,0.52,0.19,0.78
		c0.34,1.56,0.66,2.94,0.95,4.09c0.22,1.1,0.54,2.47,0.95,4.14c0.05,0.25,0.09,0.5,0.14,0.75c0.01,0.08,0.02,0.17,0.03,0.26
		c0.02,0.16,0.04,0.31,0.08,0.45c-0.01-0.07,0-0.12,0.02-0.16c0.02-0.04,0.02-0.09,0.02-0.15c-0.02-0.21-0.03-0.35-0.01-0.42
		c-0.01-0.26-0.01-0.52-0.01-0.77c0.03-1.01,0.05-2.44,0.05-4.32c0.01-0.63,0.02-1.27,0.03-1.9c0.03-0.46,0.05-0.89,0.06-1.32
		c0-0.42,0.01-0.81,0.03-1.16c-0.01-0.32-0.01-0.53,0.01-0.64c0.01-0.11,0.02-0.19,0.02-0.22c0.01-0.89,0.05-1.87,0.12-2.96
		c0.02-0.43,0.04-0.86,0.07-1.3c0.01-1.15,0.08-2.32,0.19-3.51c0.04-0.47,0.09-0.89,0.19-1.24c0.47-0.15,0.96-0.36,1.48-0.64
		c0.19-0.06,0.38-0.12,0.57-0.18c0.08-0.04,0.16-0.08,0.24-0.13c0.03-0.01,0.05-0.01,0.07-0.02c0.01,0.01,0.03,0.03,0.04,0.04
		c0.03,0.1,0.06,0.15,0.09,0.14c0.16-0.05,0.25-0.09,0.24-0.13c0-0.04,0-0.06,0-0.06c0.02-0.04,0.03-0.07,0.02-0.12
		c0.74-0.23,1.48-0.45,2.21-0.68c0.45-0.15,0.89-0.31,1.34-0.46c0.32-0.09,0.58-0.18,0.77-0.28c0.35-0.09,0.71-0.19,1.06-0.28
		c0.39-0.1,0.63,0.51,0.7,1.83c-0.03,0.55-0.06,1.1-0.09,1.65c-0.06,0.65-0.09,1.02-0.08,1.09c-0.18,2.74-0.35,5.13-0.51,7.19
		c-0.15,2.03-0.29,3.75-0.43,5.16c-0.27,2.51-0.53,5-0.78,7.46c-0.25,2.42-0.48,4.82-0.71,7.21c0,0.06-0.02,0.16-0.08,0.27
		c-0.04,0.09-0.08,0.19-0.14,0.27c-0.09,0-0.17,0-0.26,0.01c-0.09,0-0.19,0.04-0.32,0.11c-0.08,0.07-0.19,0.12-0.32,0.13
		c-0.32,0.01-0.58-0.02-0.76-0.08c-0.32-0.05-0.58-0.07-0.8-0.05c-0.04,0.06-0.15,0.1-0.35,0.11c-0.3,0.09-0.91,0.16-1.83,0.21
		c-0.86,0.05-1.72,0.09-2.58,0.14c-0.07-0.03-0.32-0.07-0.74-0.11c-0.23,0.01-0.47,0.03-0.7,0.04c-0.11-0.01-0.23-0.02-0.34-0.03
		c-0.29,0.01-0.69,0.07-1.21,0.15C100.83,56.72,100.44,56.78,99.94,56.8L99.94,56.8"/>
	<path class="st1" d="M120.87,55.63c-0.04,0-0.08-0.07-0.11-0.21c-0.17-0.33-0.31-0.72-0.41-1.18c-0.07-0.18-0.14-0.42-0.21-0.69
		c-0.24-0.65-0.44-1.56-0.6-2.7c-0.2-1.67-0.34-3-0.4-3.98c-0.05-0.44-0.11-1.05-0.16-1.82c-0.03-0.45-0.06-0.89-0.09-1.34
		c-0.07-1.11-0.14-2-0.2-2.63c-0.06-0.69-0.16-2.03-0.28-4.04c-0.15-2.75-0.27-5.23-0.35-7.41c-0.08-2.22-0.11-4.13-0.12-5.73
		c-0.02-0.5,0.34-0.86,1.07-1.05c0.59,0.08,1.18,0.17,1.77,0.28c1.21,0.26,2.11,0.51,2.7,0.73c0.89,0.33,1.79,0.61,2.69,0.85
		c0.21,0.05,0.37,0.08,0.47,0.07c0.15,0.04,0.31,0.08,0.47,0.12c0.06,0.09,0.12,0.17,0.18,0.26c0.67-0.06,1.37-0.03,2.1,0.1
		c0.73,0.14,1.61,0.34,2.66,0.63c0.05,0.01,0.1,0.08,0.17,0.2c0.34,0.09,0.68,0.19,1.01,0.28c0.17,0.05,0.31,0.24,0.43,0.57
		c0.14,0.34,0.27,0.82,0.39,1.42c0.13,0.48,0.25,1.04,0.36,1.71c0.17,0.89,0.3,1.48,0.39,1.78c0.1,0.96,0.04,1.43-0.17,1.38
		c-0.03-0.01-0.06-0.06-0.11-0.18c-0.05-0.03-0.09-0.05-0.14-0.08c-0.11-0.06-0.22-0.07-0.34-0.02c-0.12,0.07-0.26,0.09-0.41,0.06
		c-0.12-0.03-0.24-0.11-0.33-0.23c-0.05-0.05-0.15-0.08-0.3-0.12c-0.19-0.04-0.41-0.04-0.65,0.01c-0.08,0.02-0.25,0.03-0.5,0.05
		c-0.23,0.02-0.51,0-0.83-0.07c-0.91-0.19-1.58-0.3-1.97-0.3c-0.24-0.02-0.45,0.05-0.65,0.19c-0.01-0.03-0.01-0.07-0.01-0.11
		c-0.08-0.01-0.15,0.15-0.18,0.51c-0.1,0.59-0.14,1.44-0.1,2.54c0,0.32,0.02,0.69,0.05,1.09c0.02,0.4,0.08,0.68,0.15,0.84
		c0.1,0.16,0.23,0.25,0.41,0.28c0.13,0.02,0.23-0.04,0.31-0.17c0.04,0.01,0.09,0.03,0.16,0.07c0.07,0.05,0.12,0.11,0.18,0.2
		c0.91,0.14,1.83,0.29,2.75,0.44c0.02-0.07,0.05-0.12,0.09-0.15c0.04-0.03,0.08-0.03,0.12-0.02c0.22,0.04,0.38,0.11,0.5,0.24
		c0.14,0.13,0.41,0.28,0.81,0.45c0.22,0.04,0.37,0.16,0.48,0.4c0.14,0.26,0.21,0.5,0.23,0.71c0.32,1.18,0.65,2.36,0.98,3.55
		c0.11,0.57-0.19,0.88-0.9,0.96c-0.41,0.09-1.21,0.06-2.39-0.09c-0.8-0.1-1.6-0.19-2.39-0.28c-0.31-0.04-0.53-0.03-0.68,0.03
		c-0.15,0.02-0.24,0.14-0.27,0.35c-0.08,0.16-0.1,0.45-0.07,0.85c0.01,0.07,0.01,0.15,0.01,0.22c0.01,0.17,0.04,0.3,0.06,0.38
		c0.01,0.39,0.03,0.79,0.05,1.18c-0.01,0.25,0,0.62,0.04,1.13c0.03,0.44,0.05,0.89,0.08,1.34c0.99,0.08,1.99,0.11,3.02,0.09
		c1-0.01,2,0.04,2.99,0.14c0.07,0.01,0.13,0.1,0.19,0.28c0.05,0.14,0.08,0.32,0.1,0.52c0.06,0.22,0.09,0.44,0.11,0.69
		c0.08,0.52,0.18,1,0.29,1.47c0.11,0.5,0.21,1.01,0.32,1.52c0.03,0.53,0.07,1.06,0.1,1.6c-0.09,0.11-0.17,0.22-0.25,0.34
		c-0.11-0.01-0.22-0.02-0.33-0.03c-0.25-0.02-0.4-0.05-0.47-0.09c-0.07-0.07-0.15-0.11-0.24-0.11c-0.04,0.02-0.1,0.07-0.19,0.14
		c-0.09,0.05-0.15,0.12-0.22,0.18c0-0.09,0-0.17-0.01-0.26c-0.13,0.01-0.27,0.02-0.4,0.03c-0.17-0.01-0.33-0.02-0.49-0.03
		c-0.09-0.01-0.16-0.05-0.2-0.12c-0.09-0.03-0.18-0.05-0.27-0.07c-0.82-0.06-1.38,0.02-1.69,0.24c-1.73-0.09-3.46-0.18-5.19-0.26
		C124.31,55.7,122.59,55.66,120.87,55.63L120.87,55.63"/>
	<path class="st1" d="M150.78,58.26c-0.43-0.02-0.73-0.63-0.92-1.8c-0.1-0.49-0.16-0.93-0.19-1.32c-0.04-0.53-0.07-0.85-0.1-0.98
		c-0.1-0.94-0.29-2.42-0.57-4.46c-0.1-0.61-0.2-1.23-0.29-1.84c-0.47-2.84-0.81-4.93-1-6.25c-0.28-1.93-0.57-3.86-0.88-5.78
		c-0.32-1.92-0.64-3.84-0.97-5.76c-0.04-0.24,0.12-0.38,0.48-0.41c0.2-0.04,0.49,0,0.87,0.1c0.26,0.07,0.54,0.18,0.86,0.31
		c0.31,0.12,0.54,0.19,0.69,0.23c0.34,0.14,0.85,0.3,1.56,0.47c0.03-0.03,0.07-0.07,0.1-0.1c0.49,0.11,0.98,0.22,1.48,0.33
		c0.1,0.11,0.19,0.17,0.28,0.19c0.05,0.01,0.09,0.01,0.14,0.02c0.01-0.02,0.07-0.02,0.16-0.01c0.05-0.01,0.11-0.02,0.2,0
		c0.02-0.02,0.04-0.04,0.06-0.03c0.02,0,0.04,0.01,0.04,0.01c0.07,0.01,0.17,0.06,0.27,0.13c0.11,0.05,0.18,0.07,0.23,0.08
		c0.92,0.13,1.86,0.25,2.83,0.36c0.67,2.51,1.3,5.03,1.91,7.56c0,0.03,0,0.13-0.01,0.31c0,0.14,0.01,0.35,0.05,0.61
		c0.13,1.06,0.25,1.9,0.37,2.53c0.47,2.93,0.9,5.89,1.28,8.86c0.02,0.58,0.04,1.16,0.06,1.75c0,0.77,0.03,1.4,0.09,1.91
		c0.05,0.65,0.06,1.17,0.04,1.59c0,0.37-0.06,0.66-0.18,0.88c-0.14,0.21-0.39,0.31-0.72,0.3c-0.01-0.01-0.03-0.03-0.04-0.04
		c-0.04-0.02-0.08-0.04-0.11-0.05c-0.06,0-0.08,0.01-0.08,0.05c-0.07-0.01-0.13-0.01-0.19-0.01c-0.15,0.05-0.24,0.1-0.26,0.13
		c-0.13,0-0.42-0.06-0.88-0.17c-0.17-0.03-0.35-0.05-0.53-0.07c-0.13,0-0.2,0.05-0.21,0.19c-1.11-0.05-2.21-0.11-3.3-0.16
		c-0.31,0.06-0.63,0.12-0.94,0.19c-0.29,0.03-0.57,0.06-0.86,0.09C151.33,58.22,151.05,58.24,150.78,58.26
		C150.78,58.26,150.78,58.26,150.78,58.26"/>
	<path class="st1" d="M167.06,58.25c-0.55-0.17-1.09-0.33-1.63-0.5c-0.03-0.09-0.07-0.19-0.1-0.29c-0.03,0-0.05-0.15-0.07-0.46
		c-0.03-0.4-0.07-0.72-0.11-0.96c-0.07-0.58-0.13-1.16-0.19-1.74c-0.07-0.37-0.14-0.95-0.22-1.74c-0.09-0.76-0.17-1.31-0.24-1.67
		c-0.05-0.45-0.11-0.9-0.17-1.35c-0.43-1.89-0.82-3.82-1.16-5.79c-0.06-0.35-0.12-0.69-0.18-1.02c-0.07-0.35-0.11-0.61-0.1-0.74
		c-0.04-0.23-0.08-0.45-0.13-0.66c-0.04-0.09-0.08-0.24-0.12-0.44c-0.13-0.63-0.25-1.26-0.38-1.89c-0.07-0.35-0.11-0.6-0.11-0.74
		c-0.03-0.15-0.06-0.29-0.09-0.44c-0.01-0.07-0.01-0.14,0-0.21c-0.05-0.19-0.09-0.38-0.12-0.57c-0.04-0.3-0.11-0.69-0.21-1.18
		c-0.08-0.38-0.17-0.71-0.26-1.01c-0.09-0.33-0.17-0.67-0.26-1.01c-0.03-0.06-0.05-0.12-0.07-0.18c-0.1-0.06-0.11-0.1-0.03-0.13
		c0.01-0.46,0.29-0.77,0.83-0.94c0.25-0.1,0.7-0.13,1.35-0.09c0.47,0.03,1.72,0.06,3.72,0.1c1.01,0,1.64,0,1.89,0.02
		c0.42,0,0.92,0.01,1.51,0.04c0.29,0.05,0.49,0.12,0.62,0.21c0.12,0.07,0.24,0.19,0.35,0.37c0.14,0.18,0.24,0.31,0.32,0.4
		c0.35,0.43,0.69,0.86,1.04,1.29c-0.04-0.02,0.4,0.51,1.3,1.59c0.85,1.14,1.87,2.4,3.07,3.79c0.17,0.22,0.38,0.47,0.64,0.76
		c0.24,0.27,0.51,0.59,0.81,0.95c-0.1-0.48-0.2-0.96-0.3-1.43c-0.05-0.39-0.15-0.94-0.28-1.65c-0.17-0.95-0.32-2.01-0.45-3.18
		c-0.03-0.22-0.06-0.42-0.05-0.59c0-0.19-0.01-0.34-0.02-0.46c-0.04-0.28-0.06-0.42-0.02-0.42c0.08-0.17,0.25-0.33,0.5-0.52
		c0.31-0.2,0.64-0.29,1-0.24c0.83,0.05,1.66,0.09,2.49,0.14c0.41,0.02,0.74,0.05,1.02,0.09c0.41,0.03,0.82,0.05,1.23,0.07
		c0.27,0.05,0.67,0.08,1.21,0.11c0.43,0.03,0.85,0.05,1.28,0.08c0.52,0.03,0.92,0.15,1.18,0.35c0.16,0.12,0.26,0.28,0.32,0.47
		c0.04,0.16,0.07,0.42,0.07,0.77c0.01,0.35,0,0.63-0.02,0.87c-0.02,0.27-0.02,0.59,0,0.95c0.01,0.09,0.01,0.18,0.01,0.27
		c0.03,0.08,0.05,0.21,0.06,0.36c0.03,0.34,0.06,0.68,0.09,1.01c0.22,1.45,0.54,2.88,0.97,4.29c0.84,1.67,1.85,3.31,3.02,4.94
		c2.15,2.51,3.49,4.13,3.99,4.84c0.24,0.41,0.48,0.83,0.71,1.25c0.15,0.62,0.02,0.98-0.37,1.08c-0.1,0.02-0.23,0.06-0.38,0.12
		c-0.13,0.05-0.28,0.09-0.45,0.12c-1.58,0.27-2.72,0.42-3.44,0.47c-2.31,0.33-4.55,0.63-6.7,0.9c-0.11,0.05-0.25,0.08-0.42,0.1
		c-0.43,0.05-0.88,0.02-1.36-0.07c-0.29-0.04-0.6-0.16-0.95-0.4c-1.77-1.65-3.5-3.33-5.19-5.02c-0.19-0.2-0.54-0.52-1.03-0.95
		c-0.23-0.17-0.45-0.33-0.67-0.5c-0.18-0.14-0.3-0.21-0.39-0.21c-0.09,0.01-0.16,0.05-0.19,0.14c-0.06,0.05-0.07,0.11-0.06,0.17
		c0.05,0.24,0.09,0.48,0.13,0.73c0.01,0.23,0.06,0.59,0.14,1.08c0.07,0.42,0.14,0.84,0.21,1.26c0.01,0.32,0.06,0.76,0.14,1.32
		c0.08,0.57,0.15,1.14,0.22,1.72c-0.03,0.06-0.03,0.15-0.02,0.27c0.01,0.03-0.01,0.26-0.06,0.71c-0.05,0.13-0.09,0.21-0.12,0.23
		c-0.03,0.04-0.13,0.07-0.31,0.08c-0.07-0.04-0.14-0.05-0.19-0.05c-0.04,0-0.06,0-0.09,0.01c-2.35,0.32-4.25,0.49-5.74,0.52
		C168.53,58.24,167.79,58.25,167.06,58.25L167.06,58.25"/>
</g>
</svg>
