<svg xmlns="http://www.w3.org/2000/svg" id="svg-element" viewBox="0 0 229 79" fill="none" preserveAspectRatio="xMidYMin meet">
<path xmlns="http://www.w3.org/2000/svg" d="M26.56 36.26Q22.38 35.59 17.79 34.83C17.07 34.71 16.6 34.25 16.39 33.47 16.2 32.96 16.15 32.27 16.23 31.41 16.65 28.51 17.12 25.86 17.51 23.42 17.79 21.55 18.06 19.51 18.3 17.28 18.49 14.91 18.62 12.33 18.68 9.54Q18.65 5.11 18.49 0.53 18.21 -4.03 17.87 -8.46C17.82 -8.93 17.88 -9.3 18.04 -9.56 18.21 -9.85 18.41 -9.9 18.62 -9.73Q20.73 -7.98 22.85 -6.22C23.66 -5.5 24.67 -4.65 25.9 -3.63 27.73 -2.09 29.16 -0.89 30.19 -0.06Q30.86 0.49 31.54 1.04C33.06 2.27 34.25 3.26 35.14 4.02 36.66 5.32 38.18 6.94 39.7 8.81 41.48 10.83 42.99 12.89 44.26 14.97 45.77 17.31 46.77 19.79 47.28 22.68 47.79 25.61 47.95 28.11 47.75 30.14 47.59 32.24 47.03 33.94 46.05 35.21 45.06 36.48 43.58 37.31 41.54 37.65 40.52 37.83 39.32 37.89 37.93 37.84 36.5 37.79 34.86 37.62 33 37.32Q29.88 36.8 26.56 36.26 26.56 36.26 26.56 36.26M32.24 29.86C32.36 29.91 32.53 29.97 32.73 30.01 32.96 30.05 33.26 30.07 33.65 30.09 33.79 30.08 33.88 30.06 33.94 30.04 34.01 29.98 34.07 29.94 34.13 29.92 34.4 29.48 34.58 28.47 34.68 26.9 34.75 25.92 34.78 24.25 34.78 21.88 34.7 19.85 34.58 18.1 34.43 16.61Q34.38 16.1 34.33 15.6C34.23 14.68 34.04 13.27 33.72 11.38 33.36 9.44 32.97 7.99 32.58 7.03 32.25 6.34 31.98 5.91 31.76 5.75 31.54 5.59 31.34 5.49 31.18 5.43 31.02 5.38 30.91 5.36 30.86 5.36 30.81 5.36 30.71 5.38 30.56 5.4Q30.85 8.76 31.12 12.17C31.17 12.77 31.22 13.67 31.26 14.86Q31.29 15.53 31.33 16.21C31.42 18.08 31.5 19.43 31.57 20.27Q31.86 25.07 32.24 29.86 32.24 29.86 32.24 29.86" fill="black"/>
<path xmlns="http://www.w3.org/2000/svg" d="M55.73 41.01C55.31 40.98 54.91 40.36 54.55 39.19 54.38 38.7 54.25 38.26 54.17 37.87 54.06 37.35 53.99 37.03 53.94 36.91 53.73 35.98 53.38 34.53 52.92 32.57Q52.69 31.69 52.48 30.83C51.86 28.21 51.45 26.36 51.25 25.2Q50.81 22.79 50.4 20.53 50 18.45 49.62 16.56C49.59 16.41 49.78 16.32 50.2 16.28 50.42 16.24 50.76 16.22 51.19 16.22 51.48 16.22 51.79 16.23 52.14 16.25 52.48 16.25 52.74 16.23 52.9 16.22 53.27 16.22 53.84 16.17 54.61 16.05Q54.67 15.99 54.73 15.92 55.52 15.77 56.31 15.61C56.39 15.67 56.49 15.69 56.58 15.67Q56.65 15.65 56.72 15.64C56.74 15.61 56.8 15.58 56.9 15.56 56.94 15.52 57.01 15.49 57.11 15.47 57.12 15.44 57.15 15.42 57.17 15.42 57.19 15.41 57.21 15.41 57.21 15.41 57.28 15.39 57.37 15.4 57.47 15.43 57.57 15.44 57.64 15.43 57.69 15.42Q59.02 15.09 60.34 14.75 60.91 18.32 61.51 21.94C61.51 21.97 61.51 22.07 61.48 22.25 61.48 22.39 61.49 22.6 61.5 22.86 61.59 23.89 61.68 24.71 61.78 25.32Q62.46 29.64 63.19 34.13 63.28 35.02 63.39 35.91C63.45 36.7 63.54 37.35 63.65 37.85 63.77 38.53 63.84 39.07 63.87 39.49 63.92 39.88 63.9 40.18 63.83 40.41 63.74 40.63 63.54 40.74 63.25 40.73Q63.23 40.71 63.21 40.69 63.15 40.66 63.1 40.64C63.05 40.64 63.03 40.65 63.04 40.69Q62.95 40.69 62.87 40.69C62.75 40.75 62.68 40.79 62.66 40.83 62.55 40.83 62.28 40.78 61.86 40.67Q61.61 40.64 61.37 40.61C61.26 40.61 61.2 40.67 61.21 40.8Q59.68 40.75 58.16 40.68 57.73 40.77 57.31 40.87 56.91 40.92 56.5 40.96 56.11 40.98 55.73 41.01 55.73 41.01 55.73 41.01" fill="black"/>
<path xmlns="http://www.w3.org/2000/svg" d="M74 40.64C73.77 40.65 73.6 40.61 73.49 40.55 73.35 40.49 73.22 40.47 73.12 40.47Q72.97 40.48 72.82 40.48C72.62 40.32 72.51 40.15 72.49 39.99Q71.36 36.68 70.23 33.42 69.11 30.22 67.99 27.09C67.48 25.59 66.97 24.05 66.46 22.47 65.96 20.9 65.45 19.3 64.94 17.66 64.93 17.53 64.9 17.42 64.86 17.31 64.81 17.16 64.77 17.02 64.73 16.88 64.54 16.24 64.44 15.76 64.39 15.43 64.35 15.08 64.34 14.82 64.37 14.65 64.4 14.34 64.53 14.14 64.77 14.08Q65.13 13.98 65.49 13.88C65.77 13.83 66.17 13.73 66.67 13.59Q67.2 13.43 67.73 13.28 67.99 13.23 68.24 13.18 69.32 12.87 70.41 12.55C70.43 12.58 70.47 12.62 70.53 12.66 70.6 12.68 70.68 12.67 70.75 12.65 70.75 12.65 70.75 12.65 70.78 12.64 70.8 12.6 70.82 12.55 70.84 12.47Q70.98 12.41 71.12 12.34 71.19 12.32 71.26 12.3C71.5 12.27 71.83 12.18 72.26 12.06 72.67 12.04 73.29 11.91 74.12 11.67 74.32 12 74.62 13 75.02 14.68Q75.3 15.87 75.57 17.07 75.75 17.84 75.93 18.62 76.08 19.21 76.23 19.82 76.31 20.22 76.41 20.63C76.74 22.24 77.05 23.64 77.34 24.83 77.55 25.95 77.86 27.35 78.26 29.05Q78.34 29.43 78.41 29.82 78.42 29.94 78.44 30.08C78.45 30.24 78.47 30.4 78.52 30.54 78.51 30.47 78.51 30.42 78.53 30.38 78.55 30.34 78.56 30.29 78.55 30.22 78.53 30.02 78.52 29.87 78.54 29.81Q78.54 29.41 78.53 29.03C78.57 28.01 78.59 26.55 78.6 24.65Q78.61 23.69 78.63 22.73C78.66 22.27 78.68 21.83 78.69 21.39 78.69 20.97 78.7 20.57 78.72 20.21 78.71 19.89 78.72 19.68 78.74 19.57 78.75 19.46 78.75 19.38 78.75 19.35 78.77 18.44 78.81 17.45 78.89 16.35Q78.92 15.68 78.95 15.02C78.97 13.85 79.05 12.65 79.17 11.44 79.2 10.96 79.26 10.53 79.35 10.18 79.82 10.05 80.31 9.86 80.82 9.61Q81.1 9.53 81.38 9.46 81.5 9.41 81.62 9.34 81.66 9.33 81.69 9.32 81.71 9.35 81.73 9.37C81.76 9.47 81.79 9.52 81.82 9.52 81.98 9.48 82.06 9.44 82.06 9.4 82.05 9.36 82.05 9.34 82.05 9.34 82.07 9.3 82.08 9.27 82.08 9.22Q83.17 8.95 84.25 8.7 84.91 8.54 85.56 8.37C85.88 8.31 86.14 8.26 86.32 8.18Q86.83 8.1 87.35 8.03C87.73 7.99 87.96 8.64 88.02 9.98Q87.97 10.79 87.94 11.61C87.87 12.25 87.85 12.61 87.86 12.69 87.68 15.39 87.52 17.75 87.36 19.78 87.21 21.79 87.07 23.49 86.93 24.89Q86.53 28.62 86.15 32.28 85.78 35.9 85.42 39.47C85.43 39.54 85.4 39.63 85.35 39.74 85.31 39.84 85.27 39.93 85.21 40.01Q85.08 40.01 84.95 40.01C84.86 40.02 84.76 40.05 84.63 40.12 84.55 40.19 84.45 40.24 84.32 40.24 83.99 40.25 83.74 40.22 83.56 40.15 83.25 40.1 82.99 40.07 82.77 40.08 82.74 40.14 82.62 40.18 82.43 40.19 82.13 40.27 81.53 40.33 80.62 40.37Q79.35 40.42 78.08 40.47C78.01 40.43 77.76 40.39 77.35 40.35Q77 40.36 76.66 40.38 76.49 40.35 76.33 40.34C76.04 40.35 75.64 40.4 75.13 40.48 74.88 40.56 74.49 40.62 74 40.64Q74 40.64 74 40.64" fill="black"/>
<path xmlns="http://www.w3.org/2000/svg" d="M94.69 39.79C94.65 39.78 94.61 39.72 94.59 39.58 94.42 39.25 94.28 38.87 94.19 38.41 94.11 38.23 94.04 37.99 93.98 37.71 93.75 37.07 93.54 36.17 93.39 35.03 93.19 33.38 93.06 32.07 93 31.09 92.95 30.66 92.9 30.06 92.85 29.29Q92.8 28.64 92.76 27.98C92.69 26.88 92.62 26 92.56 25.38 92.5 24.72 92.4 23.39 92.28 21.41 92.12 18.71 91.99 16.29 91.9 14.17 91.82 12.01 91.77 10.17 91.76 8.63 91.73 8.15 92.08 7.82 92.8 7.67Q93.69 7.81 94.57 7.96C95.78 8.2 96.69 8.43 97.29 8.63 98.19 8.94 99.09 9.2 100 9.42 100.21 9.46 100.37 9.49 100.47 9.47Q100.71 9.53 100.95 9.59 101.03 9.71 101.13 9.84C101.8 9.76 102.51 9.78 103.24 9.89 103.98 10.01 104.87 10.2 105.93 10.47 105.97 10.48 106.03 10.54 106.1 10.66Q106.61 10.79 107.12 10.92C107.29 10.96 107.44 11.15 107.55 11.48 107.69 11.81 107.83 12.29 107.95 12.88 108.08 13.35 108.2 13.91 108.32 14.57 108.49 15.44 108.63 16.02 108.72 16.31 108.82 17.27 108.76 17.73 108.55 17.69 108.52 17.68 108.49 17.62 108.43 17.51Q108.36 17.47 108.3 17.43C108.18 17.37 108.07 17.37 107.95 17.41 107.83 17.49 107.69 17.51 107.54 17.49 107.41 17.46 107.29 17.39 107.2 17.27 107.15 17.21 107.05 17.18 106.9 17.16 106.71 17.12 106.49 17.12 106.24 17.18 106.16 17.19 105.99 17.21 105.73 17.23 105.5 17.25 105.23 17.24 104.9 17.18 103.98 17 103.31 16.91 102.91 16.91 102.67 16.9 102.45 16.96 102.25 17.11Q102.25 17.05 102.25 17C102.16 16.99 102.1 17.14 102.06 17.5 101.96 18.08 101.92 18.92 101.97 19.99 101.97 20.3 101.98 20.67 102.01 21.07 102.04 21.46 102.1 21.73 102.17 21.89 102.27 22.04 102.4 22.14 102.58 22.16 102.71 22.18 102.81 22.12 102.89 21.99 102.94 22 102.99 22.02 103.06 22.06 103.12 22.11 103.18 22.17 103.23 22.25Q104.62 22.45 106.01 22.66C106.03 22.59 106.05 22.54 106.1 22.51 106.14 22.48 106.18 22.48 106.22 22.49 106.44 22.52 106.61 22.59 106.73 22.72 106.87 22.84 107.14 22.99 107.54 23.15 107.76 23.18 107.92 23.3 108.03 23.53 108.16 23.79 108.24 24.02 108.26 24.23Q108.74 25.98 109.23 27.72C109.34 28.28 109.04 28.6 108.32 28.68 107.91 28.77 107.11 28.75 105.92 28.61Q104.71 28.48 103.51 28.35C103.2 28.32 102.97 28.33 102.83 28.39 102.68 28.41 102.59 28.53 102.56 28.73 102.48 28.9 102.46 29.18 102.48 29.57Q102.49 29.68 102.5 29.79C102.51 29.96 102.53 30.08 102.55 30.16Q102.57 30.74 102.59 31.32C102.59 31.57 102.6 31.94 102.63 32.43Q102.67 33.09 102.71 33.75C103.7 33.83 104.71 33.86 105.74 33.84 106.75 33.82 107.75 33.86 108.75 33.95 108.82 33.95 108.88 34.04 108.94 34.22 108.99 34.36 109.02 34.53 109.03 34.74 109.09 34.95 109.13 35.17 109.14 35.41 109.22 35.93 109.31 36.41 109.42 36.86Q109.58 37.61 109.74 38.37 109.78 39.15 109.82 39.95 109.69 40.12 109.56 40.29 109.4 40.28 109.23 40.27C108.98 40.25 108.83 40.22 108.76 40.18 108.69 40.11 108.61 40.08 108.52 40.07 108.48 40.1 108.41 40.14 108.33 40.21 108.24 40.27 108.17 40.33 108.11 40.39Q108.1 40.27 108.1 40.13 107.9 40.15 107.7 40.17 107.45 40.15 107.2 40.14C107.12 40.13 107.05 40.09 107 40.02Q106.87 39.98 106.73 39.96C105.91 39.9 105.35 39.98 105.03 40.2Q102.43 40.06 99.84 39.94 97.26 39.85 94.69 39.79 94.69 39.79 94.69 39.79" fill="black"/>
<path xmlns="http://www.w3.org/2000/svg" d="M124.74 42.23C124.3 42.21 124.01 41.6 123.84 40.44 123.74 39.95 123.69 39.51 123.67 39.13 123.64 38.6 123.61 38.28 123.58 38.16 123.5 37.22 123.34 35.74 123.08 33.71Q122.95 32.8 122.81 31.89C122.37 29.07 122.05 27.01 121.88 25.68Q121.47 22.82 121.01 19.97 120.51 17.13 119.99 14.31C119.94 14.07 120.11 13.93 120.48 13.89 120.68 13.84 120.99 13.87 121.39 13.95 121.66 14.01 121.96 14.11 122.29 14.23 122.62 14.33 122.86 14.39 123.02 14.42 123.39 14.55 123.94 14.68 124.7 14.81Q124.76 14.76 124.81 14.7 125.61 14.82 126.42 14.94C126.52 15.04 126.62 15.09 126.72 15.11Q126.8 15.12 126.87 15.13C126.89 15.1 126.95 15.09 127.05 15.11 127.1 15.09 127.17 15.08 127.27 15.09 127.28 15.07 127.31 15.05 127.33 15.06 127.36 15.06 127.37 15.06 127.37 15.06 127.45 15.07 127.55 15.12 127.66 15.18 127.77 15.23 127.85 15.24 127.9 15.25Q129.35 15.4 130.83 15.53 131.72 19.3 132.55 23.1C132.55 23.13 132.55 23.23 132.53 23.4 132.53 23.55 132.54 23.76 132.56 24.02 132.67 25.08 132.78 25.92 132.88 26.55Q133.52 30.95 134 35.41 134.01 36.29 134.02 37.17C133.99 37.94 134.01 38.57 134.06 39.07 134.09 39.74 134.09 40.26 134.06 40.67 134.05 41.05 133.98 41.34 133.85 41.57 133.7 41.79 133.45 41.89 133.11 41.88Q133.09 41.86 133.07 41.84 133.01 41.81 132.96 41.8C132.9 41.79 132.88 41.8 132.88 41.84Q132.78 41.84 132.68 41.84C132.53 41.89 132.44 41.94 132.42 41.98 132.28 41.98 131.99 41.92 131.52 41.82Q131.25 41.78 130.98 41.76C130.85 41.76 130.78 41.81 130.76 41.95Q129.06 41.9 127.4 41.85 126.92 41.95 126.45 42.05 126.01 42.11 125.57 42.16 125.15 42.19 124.74 42.23 124.74 42.23 124.74 42.23" fill="black"/>
<path xmlns="http://www.w3.org/2000/svg" d="M141.38 41.93Q140.53 41.69 139.71 41.45 139.66 41.32 139.61 41.17C139.58 41.17 139.57 41.02 139.55 40.7 139.54 40.3 139.5 39.98 139.47 39.74Q139.39 38.85 139.32 37.99C139.26 37.62 139.2 37.04 139.14 36.25 139.07 35.49 138.99 34.94 138.93 34.58Q138.86 33.9 138.78 33.22C138.37 31.34 138.02 29.41 137.71 27.44Q137.62 26.93 137.54 26.43C137.48 26.07 137.44 25.82 137.45 25.68Q137.39 25.35 137.33 25.02C137.29 24.93 137.25 24.79 137.22 24.58Q137.04 23.64 136.87 22.71C136.8 22.36 136.76 22.1 136.77 21.97Q136.73 21.75 136.68 21.53 136.68 21.42 136.68 21.31 136.63 21.03 136.57 20.75C136.54 20.45 136.48 20.06 136.38 19.58 136.31 19.19 136.22 18.86 136.14 18.57Q136.02 18.07 135.9 17.56 135.86 17.47 135.82 17.38C135.73 17.33 135.72 17.28 135.8 17.25 135.81 16.8 136.09 16.49 136.63 16.31 136.88 16.21 137.33 16.18 137.97 16.22 138.44 16.24 139.67 16.27 141.66 16.29 142.66 16.29 143.28 16.29 143.53 16.3 143.94 16.29 144.44 16.3 145.02 16.33 145.3 16.38 145.5 16.44 145.64 16.53 145.75 16.6 145.87 16.71 145.98 16.89 146.12 17.06 146.22 17.19 146.3 17.28Q146.82 17.92 147.33 18.55C147.3 18.51 147.73 19.03 148.63 20.09 149.5 21.19 150.53 22.4 151.75 23.75 151.94 23.96 152.16 24.2 152.42 24.47 152.68 24.74 152.96 25.04 153.28 25.39Q153.09 24.69 152.91 23.99C152.84 23.61 152.73 23.07 152.57 22.38 152.37 21.46 152.19 20.44 152.04 19.3 152 19.08 151.98 18.89 151.99 18.73 151.98 18.53 151.97 18.38 151.95 18.27 151.91 17.99 151.9 17.85 151.93 17.86 152.01 17.69 152.17 17.53 152.42 17.34 152.71 17.14 153.03 17.06 153.38 17.1Q154.58 17.15 155.76 17.21C156.15 17.23 156.47 17.26 156.73 17.29Q157.31 17.32 157.87 17.35C158.12 17.39 158.5 17.42 158.99 17.44Q159.57 17.47 160.15 17.5C160.61 17.52 160.95 17.64 161.18 17.83 161.31 17.94 161.39 18.09 161.42 18.27 161.46 18.43 161.47 18.68 161.46 19.01 161.46 19.34 161.45 19.62 161.43 19.85 161.42 20.1 161.42 20.4 161.45 20.75Q161.46 20.88 161.47 21.01C161.49 21.09 161.51 21.2 161.53 21.35Q161.6 21.83 161.68 22.3 162.33 24.34 163.5 26.31 165.64 28.61 168.35 30.85C171.31 33.19 172.98 34.76 173.55 35.47Q173.93 36.1 174.27 36.75C174.35 37.4 174.14 37.79 173.64 37.92 173.53 37.94 173.37 37.99 173.17 38.07 173.02 38.12 172.83 38.18 172.62 38.22 170.72 38.59 169.35 38.81 168.51 38.91Q164.46 39.61 160.79 40.17C160.67 40.23 160.51 40.27 160.32 40.3 159.84 40.36 159.34 40.35 158.82 40.28 158.5 40.26 158.16 40.14 157.79 39.91Q154.97 37.49 152.26 35.03C152.06 34.83 151.69 34.53 151.17 34.11Q150.81 33.87 150.46 33.63C150.28 33.49 150.14 33.43 150.05 33.44 149.96 33.44 149.89 33.49 149.85 33.58 149.8 33.63 149.78 33.69 149.79 33.75Q149.86 34.11 149.93 34.48C149.93 34.71 149.99 35.07 150.07 35.56Q150.17 36.19 150.27 36.83C150.27 37.14 150.33 37.58 150.4 38.15Q150.5 39.01 150.58 39.89C150.55 39.94 150.55 40.03 150.56 40.16 150.56 40.19 150.53 40.42 150.46 40.88 150.4 41.02 150.36 41.09 150.33 41.12 150.29 41.16 150.19 41.19 149.99 41.2 149.92 41.17 149.86 41.16 149.8 41.16 149.76 41.17 149.73 41.17 149.7 41.17 147.21 41.56 145.22 41.78 143.68 41.85Q142.51 41.89 141.38 41.93 141.38 41.93 141.38 41.93" fill="black"/>
<path xmlns="http://www.w3.org/2000/svg" d="M42.99 88.62C42.76 88.7 42.27 88.32 41.51 87.47 40.05 86 37.52 83.12 33.76 78.74 29.98 74.46 25.7 69.46 21.25 63.84 19.93 62.04 17.99 59.29 15.59 55.61Q15.37 55.44 15.17 55.27 10.59 54.45 5.7 53.57C4.92 53.43 4.07 52.93 3.17 52.1 2.32 51.22 1.4 50.05 0.47 48.62 -0.61 46.95 -1.85 44.62 -3.23 41.67Q-3.48 41.12 -3.73 40.57C-3.96 40.04 -4.11 39.65 -4.19 39.35Q-4.59 38.43 -4.98 37.51C-5.11 37.21 -5.02 37.01 -4.72 36.94 -4.43 36.81 -4.06 36.78 -3.56 36.87 -2.97 36.94 -2.01 37.19 -0.7 37.61Q2.92 38.76 6.39 39.79C7.84 40.19 8.94 40.51 9.68 40.75Q11.2 41.16 12.7 41.57 19.26 43.02 24.93 44.07 29.91 44.85 34.35 45.46C35.56 45.62 36.34 45.72 36.71 45.81 36.87 45.87 37.08 45.93 37.36 46 37.64 46.07 37.85 46.17 38 46.3 38.23 46.44 38.4 46.6 38.48 46.8 38.58 46.96 38.69 47.21 38.79 47.56Q40.35 52.35 42.16 57.22C42.33 57.64 42.33 57.94 42.16 58.09 42.03 58.16 41.83 58.2 41.57 58.19Q40.23 58.13 38.86 58.06C38.2 58.02 37.67 57.94 37.28 57.84Q36.6 57.8 35.91 57.75C35.64 57.73 35.51 57.79 35.57 57.96 35.58 58 35.59 58.06 35.61 58.15 35.6 58.19 35.61 58.25 35.65 58.34Q36.39 59.89 37.16 61.45C37.48 62.09 37.7 62.58 37.85 62.92 38.49 64.16 39.87 66.88 42.06 71.1Q42.56 72.06 43.06 73.03C44.01 74.83 44.69 76.13 45.1 76.94Q46.76 79.95 48.35 82.92C49.09 84.34 49.43 85.26 49.39 85.71 49.28 85.98 49.2 86.15 49.14 86.22Q48.85 86.35 48.56 86.48C47.92 86.69 47.5 86.89 47.29 87.06Q46.02 87.52 44.75 87.98C44.44 88.13 43.86 88.35 42.99 88.62Q42.99 88.62 42.99 88.62" fill="black"/>
<path xmlns="http://www.w3.org/2000/svg" d="M63.79 82.82C63.67 82.86 63.49 82.88 63.26 82.9 63.13 82.87 62.95 82.9 62.72 82.98 62.14 83.2 61.31 83.16 60.24 82.87Q60.16 82.89 60.08 82.93C59.97 82.96 59.83 82.93 59.65 82.83 59.59 82.77 59.53 82.73 59.47 82.7 59.4 82.65 59.32 82.58 59.21 82.48Q58.85 82.25 58.48 82C57.76 81.53 57.01 80.8 56.19 79.79 55.34 78.72 54.5 77.53 53.68 76.18 52.09 73.68 50.68 71.03 49.53 68.29 48.26 65.22 47.45 62.28 47.13 59.47 46.9 56.55 47.24 54.31 48.1 52.7 49.08 50.96 50.51 50.17 52.31 50.27 52.87 50.3 53.31 50.35 53.63 50.44 53.61 50.36 53.63 50.33 53.7 50.34Q53.76 50.34 53.8 50.34C55.41 50.41 56.83 50.55 58.1 50.77 59.19 51.04 60.26 51.55 61.3 52.32 63.42 54.14 65.06 56.12 66.25 58.26 67.51 60.64 68.48 63.45 69.18 66.69 69.89 69.92 70.16 72.97 70 75.81Q69.97 76.22 69.93 76.63C69.91 76.84 69.89 76.93 69.87 76.93Q69.86 77.07 69.85 77.19 69.79 77.29 69.72 77.41C69.51 79.6 68.77 81.09 67.52 81.87 66.67 82.28 65.4 82.48 63.79 82.82Q63.79 82.82 63.79 82.82M63.04 78.92C63.18 78.89 63.25 78.68 63.22 78.3 63.23 77.66 63.05 76.47 62.65 74.7 62.58 74.4 62.42 73.71 62.17 72.65 61.93 71.58 61.67 70.58 61.41 69.65 60.79 67.3 60.4 65.84 60.24 65.29Q60 64.48 59.77 63.67C59.4 62.42 59.06 61.34 58.74 60.44 58.28 59.01 57.83 57.88 57.41 57.04 57.1 56.62 56.89 56.41 56.78 56.41 56.57 56.4 56.43 56.67 56.39 57.19 56.34 57.72 56.47 58.68 56.78 60.1Q57.74 64.33 58.77 68.57 59.05 69.44 59.33 70.32C59.86 71.77 60.19 72.72 60.34 73.18Q60.57 73.78 60.8 74.41 61.1 75.23 61.4 76.05C61.49 76.31 61.59 76.56 61.69 76.75Q62.13 77.67 62.56 78.57C62.62 78.71 62.69 78.8 62.78 78.86 62.88 78.9 62.97 78.93 63.04 78.92Q63.04 78.92 63.04 78.92" fill="black"/>
<path xmlns="http://www.w3.org/2000/svg" d="M77.42 81.52C77.27 81.52 77.14 81.47 77.05 81.41Q76.55 81.4 76.05 81.39 75.53 81.14 75 80.89 74.93 80.71 74.86 80.54 74.81 80.28 74.76 80.01 74.6 79.31 74.46 78.61C74.3 77.98 74.18 77.44 74.09 76.99Q73.69 75.02 73.3 73.07C73.2 72.69 73.09 72.17 72.97 71.53 72.66 69.94 72.39 68.42 72.16 66.96 72 66 71.73 64.46 71.33 62.36 71.26 62.01 71.18 61.72 71.1 61.49Q71.05 61.23 71 60.98 70.96 60.83 70.92 60.67C70.77 59.89 70.65 59.13 70.57 58.38Q70.33 57.03 70.1 55.7 69.97 55.09 69.85 54.48 69.74 53.89 69.64 53.32C69.55 53.22 69.5 53.1 69.48 52.96 69.39 52.46 69.57 52.09 70.03 51.86 70.29 51.72 70.65 51.66 71.09 51.65Q73.38 51.65 75.65 51.63 76.71 51.64 77.77 51.66C77.77 51.66 77.78 51.67 77.81 51.72 77.85 51.75 77.9 51.8 77.95 51.87 78.14 52.13 78.36 52.49 78.58 52.94 78.83 53.45 79.05 53.99 79.25 54.57 79.47 55.24 79.89 56.44 80.5 58.15 80.99 59.55 81.38 60.67 81.7 61.5 81.95 62.38 82.18 62.84 82.37 62.84 82.55 62.84 82.66 62.61 82.71 62.17 82.73 62.1 82.77 61.87 82.81 61.5Q82.94 60.55 83.07 59.6C83.09 59.46 83.18 58.94 83.33 58.06 83.37 57.88 83.48 57.26 83.65 56.2Q83.79 55.38 83.94 54.55C83.96 54.35 83.99 54.09 84.05 53.78 84.1 53.47 84.16 53.17 84.24 52.9 84.39 52.34 84.52 51.98 84.63 51.82 84.66 51.67 84.71 51.61 84.8 51.61Q85.85 51.57 86.9 51.55 89.67 51.55 92.45 51.57C92.53 51.6 92.72 51.62 93.01 51.62 93.03 51.62 93.09 51.84 93.18 52.3 93.34 54.07 93.45 55.48 93.51 56.56 93.61 57.87 93.74 59.86 93.87 62.52Q93.93 63.82 93.98 65.11C94.05 66.67 94.05 68.89 94.01 71.8Q94.03 72.58 94.06 73.35C94.09 73.8 94.12 74.42 94.15 75.21Q94.19 76.31 94.24 77.41C94.26 77.81 94.29 78.37 94.31 79.07 94.32 79.7 94.34 80.11 94.37 80.32Q94.38 80.58 94.38 80.84 94.34 81.02 94.31 81.2 93.78 81.43 93.26 81.67 92.74 81.67 92.23 81.66C92.13 81.72 92.01 81.76 91.86 81.76 91.2 81.75 90.52 81.68 89.83 81.57 89.13 81.41 88.7 81.32 88.53 81.29Q88.48 81.31 88.43 81.34 88.37 81.34 88.31 81.34C88.21 81.34 88.13 81 88.07 80.33 87.91 79.44 87.7 77.44 87.45 74.35 87.34 73.49 87.23 72.32 87.11 70.84 87.09 70.59 87.01 70.46 86.88 70.46 86.83 70.46 86.78 70.6 86.75 70.88 86.59 72.12 86.49 72.9 86.46 73.21Q86.41 73.75 86.37 74.3 86.3 74.7 86.23 75.11C86.05 76.5 85.82 77.56 85.53 78.33 85.35 78.77 85.15 78.99 84.91 78.98Q84.51 78.98 84.12 78.97C83.89 78.97 83.73 78.95 83.63 78.92 83.44 78.92 83.3 78.89 83.21 78.86 82.37 76.98 81.54 74.9 80.71 72.66 80.58 72.24 80.46 71.89 80.35 71.62 80.26 71.34 80.18 71.1 80.12 70.89 79.94 70.54 79.85 70.37 79.85 70.37 79.72 70.37 79.68 70.49 79.71 70.74Q79.86 71.77 80 72.8C80.3 74.91 80.51 76.43 80.62 77.35 80.84 78.85 80.94 79.95 80.95 80.69 80.95 80.83 80.94 80.95 80.93 81.06 80.92 81.16 80.9 81.21 80.87 81.21Q80.81 81.21 80.75 81.21 80.69 81.18 80.64 81.16C80.49 81.18 80.09 81.26 79.43 81.4 78.77 81.48 78.1 81.53 77.42 81.52Q77.42 81.52 77.42 81.52" fill="black"/>
<path xmlns="http://www.w3.org/2000/svg" d="M98.11 81.68C97.75 81.68 97.58 81.09 97.62 79.91 97.61 79.5 97.65 79.03 97.73 78.52 97.73 78.27 97.74 78.08 97.75 77.94 97.76 77.77 97.77 77.63 97.77 77.53 97.95 75.64 98.15 73.77 98.36 71.92 98.58 70.07 98.8 68.23 99.04 66.41Q99.48 62.98 99.91 59.55 100.34 56.12 100.76 52.69C100.76 52.62 100.79 52.54 100.85 52.43 100.91 52.33 100.97 52.24 101.03 52.18Q101.14 52.18 101.25 52.19C101.51 52.19 101.71 52.15 101.85 52.05 101.98 52.01 102.2 52 102.52 52.01 103.03 52.03 103.42 52.05 103.68 52.1 104.06 52.21 104.46 52.27 104.87 52.28Q105.71 52.28 106.54 52.28C106.72 52.22 106.92 52.19 107.16 52.2Q107.87 52.17 108.59 52.15 109.12 52.16 109.66 52.18C110.07 52.2 110.48 52.22 110.88 52.27Q111.34 52.29 111.8 52.31C112.01 52.34 112.34 52.37 112.75 52.39Q113.38 52.41 114.02 52.43C114.08 52.43 114.15 52.45 114.22 52.49 114.28 52.52 114.34 52.55 114.38 52.6 114.47 52.66 114.58 52.7 114.72 52.71Q114.86 52.71 115.02 52.72C115.17 52.88 115.25 53.06 115.25 53.23Q115.8 56.58 116.3 59.93 116.76 63.28 117.18 66.64C117.41 68.79 117.6 70.78 117.75 72.6 117.9 74.43 118.01 76.1 118.1 77.6 118.09 77.76 118.09 78.09 118.12 78.57 118.15 79.25 118.15 79.8 118.13 80.2 118.11 80.45 118.07 80.78 118 81.19 117.88 81.53 117.74 81.7 117.56 81.7Q117.4 81.7 117.24 81.7C116.99 81.7 116.8 81.68 116.66 81.65Q115.79 81.65 114.92 81.65C114.79 81.65 114.71 81.63 114.69 81.6Q113.89 81.6 113.09 81.59 113.08 81.54 113.07 81.48C113.03 81.42 112.97 81.39 112.9 81.39Q112.85 81.44 112.81 81.48C112.8 81.55 112.79 81.59 112.75 81.59Q112.6 81.59 112.46 81.59C112.36 81.52 112.19 81.48 111.94 81.48 111.47 81.42 111.08 81.39 110.78 81.39 110.58 80.59 110.37 78.86 110.13 76.19 109.71 76.29 109.23 76.33 108.7 76.32Q107.94 76.32 107.18 76.32C107.1 76.83 107.04 77.26 107.02 77.6 107.01 77.78 106.92 78.37 106.78 79.37 106.64 80.36 106.51 81.03 106.39 81.38Q106.3 81.43 106.22 81.47C106.16 81.52 106.11 81.55 106.07 81.59 106.03 81.59 106.01 81.59 106.01 81.59Q105.99 81.59 105.96 81.59C105.84 81.59 105.77 81.55 105.72 81.47 105.65 81.41 105.6 81.38 105.58 81.38Q105.03 81.43 104.48 81.47 104.07 81.47 103.67 81.47C103.57 81.51 103.49 81.54 103.44 81.58 103.38 81.58 103.34 81.58 103.32 81.58Q102.05 81.58 100.77 81.58C100.6 81.61 100.24 81.63 99.7 81.63Q99.35 81.63 99.01 81.63C98.89 81.66 98.71 81.68 98.46 81.68Q98.29 81.68 98.11 81.68 98.11 81.68 98.11 81.68M109.98 70.68C109.88 69.52 109.82 68.85 109.81 68.63Q109.7 67.41 109.6 66.18C109.56 65.7 109.53 65.27 109.49 64.9 109.45 64.49 109.43 64.11 109.41 63.77 109.35 63.36 109.3 62.98 109.26 62.64 109.25 62.27 109.22 61.93 109.18 61.62 109.16 61.42 109.13 61.16 109.12 60.85 109.1 60.5 109.07 60.27 109.02 60.13Q108.99 59.83 108.96 59.52C108.96 59.38 108.94 59.26 108.9 59.16Q108.88 59.01 108.86 58.85C108.82 59.06 108.8 59.16 108.8 59.16Q108.8 59.33 108.8 59.52C108.8 59.55 108.79 59.62 108.77 59.72 108.75 59.78 108.72 59.92 108.7 60.13 108.69 60.29 108.66 60.52 108.64 60.79 108.62 61.03 108.59 61.3 108.54 61.61Q108.42 62.65 108.31 63.7 108.18 64.88 108.05 66.06 107.99 66.62 107.94 67.18C107.9 67.45 107.86 67.9 107.81 68.52 107.61 70.06 107.52 70.75 107.54 70.62Q108.21 70.63 108.88 70.63C108.9 70.59 108.93 70.56 108.97 70.53 109.02 70.46 109.05 70.42 109.07 70.42Q109.11 70.42 109.16 70.42C109.26 70.42 109.34 70.44 109.4 70.48 109.48 70.51 109.56 70.55 109.62 70.59 109.74 70.65 109.86 70.68 109.98 70.68Q109.98 70.68 109.98 70.68" fill="black"/>
<path xmlns="http://www.w3.org/2000/svg" d="M124.95 81.81C124.83 81.33 124.82 80.47 124.93 79.2 124.99 78.1 125.16 76.47 125.43 74.34Q125.8 71.55 126.14 68.77C126.32 67.41 126.56 65.28 126.85 62.36Q126.81 62.28 126.76 62.21 125.07 62.19 123.38 62.17C122.89 62.16 122.62 61.31 122.56 59.64 122.52 58.74 122.54 57.41 122.62 55.68Q122.63 55.35 122.65 55.03C122.7 54.79 122.74 54.44 122.75 53.94Q122.77 53.44 122.78 52.94 122.81 52.74 122.83 52.54 122.9 52.45 122.97 52.35 123.29 52.38 123.61 52.41 123.96 52.42 124.31 52.43C125.36 52.45 126.15 52.45 126.71 52.43Q128.55 52.45 130.43 52.47 132.33 52.48 134.28 52.47C134.61 52.5 135.09 52.51 135.71 52.5Q136.21 52.5 136.7 52.49C136.81 52.42 136.99 52.39 137.23 52.38 137.42 52.31 137.6 52.28 137.76 52.27 138.27 52.26 138.66 52.28 138.92 52.34 139.47 52.39 139.88 52.41 140.15 52.41Q140.69 52.36 141.24 52.32 142.07 52.29 142.9 52.25C143.77 52.21 144.36 52.18 144.68 52.21Q144.99 52.21 145.3 52.22C145.32 52.25 145.36 52.29 145.41 52.36 145.47 52.39 145.5 52.41 145.49 52.45Q144.83 56.72 143.97 61.08C143.92 61.28 143.78 61.51 143.54 61.76 143.32 62.01 143.12 62.17 142.95 62.25 142.11 62.03 140.99 61.95 139.6 61.98Q138.86 61.99 138.13 62.01C137.74 62.01 137.39 62.66 137.04 63.96 136.92 64.32 136.81 64.88 136.68 65.59Q136.54 66.36 136.4 67.14C136.28 67.81 136.2 68.33 136.16 68.67Q136.02 69.4 135.88 70.13C135.62 71.53 135.32 72.85 135 74.06 134.78 74.95 134.63 75.61 134.55 76.03 134.43 76.43 134.3 77.01 134.17 77.73 133.98 78.77 133.81 79.64 133.64 80.33 133.43 81.41 133.08 81.97 132.6 82.02 132.07 82.08 131.75 82.13 131.67 82.12Q129.95 82.02 128.24 81.92 126.55 81.84 124.95 81.81 124.95 81.81 124.95 81.81" fill="black"/>
<path xmlns="http://www.w3.org/2000/svg" d="M151.07 84.43C150.89 84.42 150.67 84.36 150.39 84.28 150.26 84.19 150.04 84.15 149.72 84.13 148.9 84.08 147.97 83.7 146.94 83.02Q146.82 83.01 146.71 83.01C146.55 83 146.41 82.91 146.28 82.76 146.26 82.68 146.22 82.63 146.17 82.58 146.12 82.51 146.06 82.42 146.01 82.29Q145.75 81.96 145.5 81.61C145 80.96 144.64 80.09 144.42 78.98 144.21 77.83 144.11 76.59 144.16 75.25 144.19 72.79 144.55 70.3 145.26 67.76 146.03 64.94 147.19 62.24 148.79 59.62 150.5 56.86 152.48 54.62 154.78 52.87 157.44 50.88 160.35 49.66 163.58 49.15 164.64 48.97 165.46 48.86 166.04 48.82 166.06 48.75 166.14 48.7 166.28 48.68Q166.38 48.66 166.49 48.64C169.88 48.01 173.11 47.44 176.1 46.98 178.71 46.64 181.01 46.59 182.85 46.89 185.72 47.94 186.33 49.67 185.09 51.98 183.3 54.63 180.18 58.11 177.16 62.69 174.21 67.28 170.59 71.76 166.5 76.02Q165.9 76.63 165.31 77.23C165.01 77.53 164.86 77.66 164.83 77.67Q164.65 77.86 164.48 78.03 164.24 78.19 164 78.36C161.21 81.33 158.8 83.17 156.5 84.02 155.06 84.42 153.26 84.56 151.07 84.43Q151.07 84.43 151.07 84.43M153.14 80.16C153.34 80.16 153.59 79.94 153.88 79.52 154.45 78.8 155.28 77.42 156.43 75.33 156.62 74.97 157.07 74.15 157.79 72.88 158.54 71.6 159.21 70.42 159.83 69.31 161.45 66.5 162.48 64.77 162.84 64.12Q163.38 63.17 163.91 62.23C164.75 60.78 165.41 59.54 165.88 58.54 166.68 56.94 167.12 55.73 167.24 54.88 167.08 54.5 166.89 54.33 166.68 54.37 166.24 54.45 165.7 54.8 165.05 55.43 164.41 56.06 163.62 57.14 162.68 58.71Q159.8 63.44 157.03 68.21 156.57 69.19 156.11 70.17C155.44 71.82 155 72.9 154.77 73.42Q154.5 74.11 154.23 74.83 153.88 75.77 153.55 76.71C153.43 77.01 153.33 77.29 153.29 77.53Q153.05 78.6 152.83 79.67C152.79 79.84 152.8 79.95 152.87 80.04 152.95 80.11 153.04 80.16 153.14 80.16Q153.14 80.16 153.14 80.16" fill="black"/>
<path xmlns="http://www.w3.org/2000/svg" d="M38 84.78C37.68 84.83 37.02 84.38 35.98 83.43 34.02 81.77 30.77 78.61 26.24 73.94 21.95 69.44 17.39 64.25 13.06 58.49 11.86 56.65 10.12 53.85 8.01 50.12Q7.79 49.94 7.59 49.76 2.69 48.72 -2.13 47.73C-2.86 47.59 -3.63 47.09 -4.42 46.25 -5.18 45.36 -6.02 44.17 -6.88 42.72 -7.92 41.03 -9.14 38.64 -10.56 35.58Q-10.83 35.01 -11.1 34.43C-11.36 33.88 -11.52 33.46 -11.63 33.14Q-12.08 32.16 -12.54 31.18C-12.69 30.85 -12.64 30.62 -12.38 30.51 -12.12 30.36 -11.75 30.34 -11.22 30.45 -10.57 30.58 -9.49 30.95 -8.01 31.54Q-3.87 33.15 0.04 34.55C1.67 35.09 2.89 35.5 3.7 35.79Q5.38 36.32 7.03 36.82 14.23 38.63 20.39 39.89 25.76 40.82 30.52 41.55C31.8 41.74 32.62 41.87 33.02 41.98 33.19 42.03 33.41 42.1 33.7 42.19 33.99 42.26 34.22 42.37 34.37 42.5 34.61 42.65 34.77 42.81 34.85 43.01 34.95 43.17 35.05 43.43 35.14 43.77Q36.55 48.58 38.28 53.48C38.44 53.91 38.42 54.2 38.23 54.35 38.08 54.41 37.86 54.44 37.57 54.42Q36.09 54.29 34.57 54.15C33.82 54.07 33.23 53.96 32.8 53.84Q32.04 53.76 31.27 53.67C30.95 53.63 30.81 53.68 30.85 53.86 30.87 53.9 30.88 53.96 30.89 54.04 30.87 54.08 30.88 54.14 30.92 54.23Q31.63 55.79 32.39 57.38C32.71 58.03 32.94 58.52 33.09 58.87 33.73 60.12 35.15 62.9 37.47 67.23Q38 68.22 38.55 69.22C39.59 71.08 40.35 72.42 40.8 73.26Q42.69 76.4 44.53 79.49C45.39 80.97 45.8 81.92 45.76 82.37 45.64 82.63 45.55 82.8 45.48 82.88Q45.15 82.99 44.81 83.1C44.08 83.27 43.59 83.44 43.34 83.6Q41.82 83.96 40.27 84.32C39.88 84.44 39.14 84.6 38 84.78Q38 84.78 38 84.78" fill="#FF401E"/>
<path xmlns="http://www.w3.org/2000/svg" d="M61.39 80.16C61.27 80.2 61.08 80.21 60.83 80.22 60.69 80.18 60.5 80.2 60.26 80.27 59.65 80.46 58.77 80.39 57.62 80.05Q57.54 80.08 57.45 80.1C57.34 80.14 57.18 80.1 56.99 79.99 56.93 79.92 56.87 79.88 56.8 79.85 56.72 79.8 56.64 79.72 56.52 79.62Q56.13 79.37 55.73 79.11C54.95 78.6 54.13 77.83 53.24 76.78 52.31 75.67 51.39 74.42 50.49 73.03 48.75 70.43 47.23 67.7 46.01 64.89 44.67 61.75 43.87 58.77 43.61 55.95 43.45 53.03 43.88 50.8 44.84 49.23 45.92 47.53 47.44 46.79 49.32 46.95 49.91 46.99 50.36 47.06 50.69 47.16 50.67 47.08 50.7 47.06 50.77 47.06Q50.83 47.06 50.88 47.07C52.54 47.19 54.02 47.36 55.32 47.61 56.45 47.9 57.55 48.44 58.62 49.22 60.8 51.06 62.49 53.05 63.71 55.2 65.01 57.58 66.02 60.38 66.76 63.62 67.51 66.85 67.8 69.89 67.66 72.73Q67.63 73.14 67.6 73.55C67.58 73.76 67.56 73.85 67.54 73.85Q67.53 73.98 67.52 74.11 67.45 74.21 67.39 74.32C67.18 76.51 66.45 78 65.17 78.83 64.31 79.3 63.05 79.72 61.39 80.16Q61.39 80.16 61.39 80.16M60.53 76.15C60.69 76.12 60.75 75.9 60.71 75.51 60.71 74.85 60.51 73.62 60.07 71.8 59.99 71.49 59.81 70.78 59.54 69.7 59.27 68.6 59 67.59 58.72 66.65 58.06 64.25 57.65 62.77 57.48 62.21Q57.23 61.38 56.99 60.57C56.61 59.3 56.26 58.2 55.93 57.29 55.45 55.85 54.99 54.7 54.56 53.85 54.23 53.43 54.02 53.21 53.9 53.21 53.68 53.2 53.54 53.46 53.48 53.98 53.43 54.51 53.56 55.48 53.87 56.91Q54.87 61.21 55.94 65.52 56.24 66.41 56.54 67.3C57.11 68.79 57.47 69.76 57.62 70.23Q57.87 70.86 58.12 71.5 58.45 72.35 58.78 73.19C58.87 73.46 58.98 73.71 59.08 73.92Q59.56 74.86 60.03 75.8C60.1 75.94 60.17 76.04 60.26 76.1 60.37 76.14 60.47 76.17 60.53 76.15Q60.53 76.15 60.53 76.15" fill="#FF401E"/>
<path xmlns="http://www.w3.org/2000/svg" d="M75.33 78.36C75.18 78.36 75.05 78.32 74.95 78.25Q74.44 78.25 73.92 78.24 73.39 77.99 72.85 77.74 72.77 77.57 72.7 77.39 72.64 77.13 72.59 76.87 72.42 76.17 72.27 75.48C72.1 74.86 71.97 74.32 71.88 73.87Q71.45 71.91 71.03 69.97C70.93 69.59 70.82 69.08 70.68 68.43 70.35 66.86 70.07 65.34 69.82 63.88 69.66 62.92 69.37 61.39 68.94 59.29 68.87 58.95 68.79 58.66 68.71 58.43Q68.66 58.17 68.61 57.92 68.56 57.77 68.52 57.61C68.36 56.83 68.24 56.07 68.16 55.33Q67.9 53.99 67.66 52.66 67.53 52.05 67.4 51.45 67.29 50.86 67.18 50.29C67.1 50.19 67.04 50.07 67.02 49.94 66.92 49.44 67.11 49.07 67.58 48.84 67.85 48.7 68.22 48.64 68.67 48.64Q71 48.64 73.32 48.61 74.4 48.62 75.48 48.64C75.48 48.64 75.49 48.65 75.52 48.69 75.56 48.72 75.61 48.77 75.67 48.84 75.87 49.1 76.08 49.45 76.31 49.9 76.57 50.4 76.8 50.94 77 51.52 77.24 52.19 77.67 53.38 78.31 55.08 78.81 56.47 79.22 57.59 79.55 58.41 79.82 59.29 80.05 59.74 80.25 59.74 80.43 59.74 80.54 59.52 80.59 59.08 80.61 59.01 80.64 58.78 80.68 58.41Q80.81 57.46 80.94 56.51C80.96 56.37 81.04 55.86 81.18 54.97 81.22 54.8 81.33 54.18 81.5 53.12Q81.63 52.3 81.78 51.48C81.79 51.27 81.83 51.01 81.88 50.7 81.93 50.39 81.99 50.09 82.07 49.83 82.22 49.27 82.35 48.91 82.46 48.74 82.48 48.59 82.54 48.53 82.62 48.53Q83.69 48.49 84.75 48.45 87.55 48.43 90.36 48.43C90.44 48.46 90.63 48.48 90.93 48.48 90.95 48.48 91.01 48.7 91.1 49.16 91.28 50.93 91.4 52.35 91.47 53.43 91.59 54.74 91.74 56.73 91.9 59.4Q91.97 60.69 92.04 61.99C92.13 63.54 92.16 65.77 92.15 68.67Q92.19 69.45 92.22 70.22C92.26 70.67 92.3 71.29 92.33 72.08Q92.39 73.18 92.45 74.27C92.48 74.68 92.52 75.24 92.54 75.94 92.56 76.56 92.58 76.98 92.61 77.18Q92.62 77.44 92.63 77.71 92.59 77.88 92.56 78.06 92.06 78.29 91.56 78.53 91.04 78.52 90.53 78.51C90.43 78.57 90.3 78.61 90.15 78.61 89.47 78.6 88.77 78.53 88.06 78.42 87.34 78.26 86.9 78.17 86.72 78.14Q86.67 78.16 86.62 78.19 86.56 78.19 86.5 78.19C86.39 78.19 86.31 77.85 86.25 77.19 86.07 76.29 85.84 74.3 85.55 71.22 85.43 70.36 85.3 69.19 85.16 67.71 85.14 67.46 85.06 67.35 84.93 67.35 84.87 67.35 84.83 67.48 84.8 67.76 84.64 68.99 84.56 69.77 84.53 70.08Q84.49 70.61 84.45 71.16 84.38 71.56 84.32 71.98C84.14 73.36 83.91 74.42 83.63 75.19 83.45 75.63 83.24 75.84 83 75.84Q82.59 75.83 82.18 75.83C81.95 75.82 81.79 75.81 81.68 75.78 81.49 75.77 81.34 75.75 81.25 75.72 80.38 73.84 79.51 71.78 78.64 69.54 78.5 69.13 78.38 68.77 78.26 68.51 78.17 68.23 78.08 67.99 78.02 67.78 77.83 67.43 77.74 67.27 77.74 67.27 77.61 67.27 77.57 67.38 77.6 67.63Q77.76 68.65 77.92 69.68C78.24 71.78 78.46 73.3 78.59 74.22 78.82 75.71 78.94 76.81 78.95 77.54 78.95 77.68 78.94 77.8 78.93 77.91 78.92 78.01 78.91 78.06 78.87 78.06Q78.81 78.06 78.75 78.06 78.69 78.03 78.63 78C78.48 78.03 78.07 78.11 77.39 78.24 76.72 78.32 76.03 78.38 75.33 78.36Q75.33 78.36 75.33 78.36" fill="#FF401E"/>
<path xmlns="http://www.w3.org/2000/svg" d="M96.29 78.56C95.92 78.56 95.76 77.97 95.81 76.78 95.8 76.38 95.83 75.91 95.92 75.39 95.91 75.14 95.92 74.96 95.93 74.82 95.94 74.65 95.95 74.51 95.95 74.41 96.12 72.52 96.31 70.65 96.51 68.8 96.71 66.95 96.92 65.11 97.14 63.29Q97.54 59.85 97.94 56.42 98.34 52.98 98.73 49.53C98.73 49.46 98.76 49.37 98.81 49.27 98.87 49.17 98.93 49.08 98.99 49.02Q99.1 49.02 99.22 49.02C99.47 49.03 99.68 48.98 99.82 48.88 99.95 48.84 100.17 48.84 100.49 48.85 101 48.86 101.39 48.88 101.65 48.93 102.04 49.05 102.44 49.11 102.84 49.13Q103.68 49.12 104.52 49.13C104.69 49.06 104.89 49.04 105.13 49.05Q105.85 49.02 106.56 49 107.1 49.02 107.64 49.04C108.05 49.06 108.46 49.08 108.85 49.14Q109.31 49.16 109.77 49.18C109.99 49.22 110.32 49.25 110.73 49.27Q111.36 49.29 111.99 49.32C112.06 49.32 112.13 49.33 112.19 49.38 112.26 49.41 112.31 49.44 112.36 49.48 112.45 49.55 112.56 49.59 112.7 49.6Q112.84 49.6 113 49.61C113.15 49.78 113.23 49.95 113.24 50.13Q113.84 53.49 114.4 56.85 114.92 60.2 115.39 63.56C115.66 65.72 115.88 67.71 116.06 69.53 116.24 71.36 116.38 73.02 116.48 74.52 116.47 74.69 116.48 75.02 116.52 75.5 116.56 76.17 116.57 76.72 116.54 77.12 116.53 77.37 116.49 77.7 116.42 78.11 116.3 78.44 116.16 78.62 115.98 78.62Q115.82 78.62 115.66 78.62C115.4 78.62 115.2 78.6 115.07 78.56Q114.18 78.56 113.29 78.56C113.16 78.56 113.07 78.54 113.06 78.51Q112.24 78.51 111.44 78.5 111.42 78.45 111.41 78.39C111.37 78.33 111.31 78.3 111.23 78.3Q111.19 78.35 111.14 78.39C111.14 78.46 111.12 78.5 111.08 78.5Q110.93 78.5 110.79 78.5C110.69 78.43 110.51 78.39 110.26 78.39 109.79 78.32 109.39 78.29 109.08 78.29 108.88 77.5 108.65 75.77 108.39 73.09 107.97 73.19 107.48 73.23 106.94 73.23Q106.17 73.22 105.41 73.22C105.33 73.73 105.28 74.16 105.26 74.5 105.24 74.68 105.16 75.27 105.02 76.27 104.88 77.26 104.75 77.93 104.64 78.28Q104.55 78.33 104.46 78.37C104.4 78.41 104.36 78.44 104.31 78.48 104.27 78.48 104.26 78.48 104.26 78.48Q104.23 78.48 104.2 78.48C104.08 78.48 104 78.44 103.96 78.37 103.89 78.31 103.83 78.28 103.81 78.28Q103.26 78.33 102.7 78.37 102.29 78.36 101.88 78.36C101.78 78.4 101.7 78.43 101.65 78.48 101.59 78.48 101.55 78.48 101.53 78.48Q100.24 78.47 98.96 78.47C98.78 78.5 98.42 78.52 97.88 78.52Q97.53 78.51 97.18 78.51C97.07 78.54 96.88 78.56 96.63 78.56Q96.46 78.56 96.29 78.56 96.29 78.56 96.29 78.56M108.19 67.6C108.07 66.43 108 65.75 107.99 65.54Q107.87 64.31 107.75 63.08C107.71 62.6 107.67 62.17 107.63 61.8 107.58 61.39 107.55 61.01 107.53 60.67 107.47 60.26 107.42 59.88 107.37 59.54 107.35 59.16 107.32 58.82 107.27 58.51 107.25 58.3 107.22 58.05 107.2 57.74 107.18 57.39 107.14 57.15 107.1 57.02Q107.06 56.71 107.03 56.4C107.03 56.26 107.01 56.15 106.96 56.04Q106.94 55.89 106.92 55.73C106.88 55.94 106.86 56.04 106.86 56.04Q106.87 56.21 106.87 56.4C106.87 56.43 106.86 56.5 106.84 56.6 106.82 56.66 106.8 56.81 106.78 57.01 106.76 57.18 106.74 57.4 106.72 57.68 106.71 57.91 106.68 58.19 106.63 58.5Q106.53 59.54 106.43 60.59 106.31 61.77 106.19 62.95 106.14 63.52 106.09 64.08C106.05 64.35 106.01 64.8 105.97 65.41 105.79 66.95 105.71 67.65 105.72 67.52Q106.4 67.53 107.08 67.53C107.1 67.49 107.13 67.46 107.17 67.43 107.21 67.36 107.24 67.33 107.26 67.33Q107.31 67.33 107.35 67.33C107.46 67.33 107.54 67.34 107.6 67.39 107.68 67.42 107.75 67.45 107.82 67.49 107.94 67.55 108.06 67.6 108.19 67.6Q108.19 67.6 108.19 67.6" fill="#FF401E"/>
<path xmlns="http://www.w3.org/2000/svg" d="M123.53 78.74C123.4 78.26 123.38 77.4 123.46 76.14 123.5 75.03 123.64 73.4 123.87 71.27Q124.18 68.49 124.46 65.71C124.61 64.36 124.8 62.24 125.02 59.33Q124.98 59.25 124.93 59.17 123.23 59.15 121.54 59.12C121.04 59.11 120.75 58.26 120.66 56.59 120.61 55.69 120.6 54.37 120.64 52.64Q120.64 52.31 120.65 51.99C120.7 51.75 120.73 51.39 120.73 50.89Q120.74 50.4 120.74 49.9 120.76 49.7 120.78 49.5 120.85 49.4 120.92 49.31 121.23 49.34 121.55 49.38 121.9 49.39 122.25 49.4C123.29 49.43 124.08 49.43 124.63 49.42Q126.46 49.46 128.32 49.5 130.2 49.52 132.12 49.54C132.45 49.57 132.93 49.59 133.54 49.59Q134.03 49.58 134.52 49.58C134.62 49.51 134.8 49.48 135.03 49.48 135.22 49.41 135.39 49.38 135.55 49.38 136.05 49.37 136.44 49.4 136.7 49.46 137.24 49.51 137.64 49.54 137.91 49.54Q138.44 49.5 138.97 49.46 139.79 49.44 140.6 49.42C141.45 49.39 142.03 49.37 142.34 49.4Q142.64 49.4 142.94 49.42C142.97 49.45 143.01 49.49 143.06 49.56 143.12 49.59 143.15 49.61 143.14 49.65Q142.71 53.83 142.07 58.1C142.04 58.31 141.9 58.52 141.67 58.77 141.47 59.01 141.28 59.17 141.11 59.25 140.26 59.03 139.14 58.95 137.75 58.98Q137.01 58.99 136.28 59C135.89 59.01 135.56 59.64 135.26 60.93 135.16 61.29 135.06 61.84 134.95 62.54Q134.84 63.31 134.73 64.07C134.62 64.74 134.56 65.25 134.52 65.6Q134.41 66.31 134.29 67.02C134.06 68.42 133.78 69.72 133.49 70.92 133.28 71.8 133.15 72.46 133.08 72.87 132.96 73.27 132.84 73.85 132.71 74.56 132.53 75.59 132.36 76.45 132.2 77.13 132 78.2 131.64 78.76 131.15 78.81 130.61 78.88 130.3 78.93 130.21 78.92Q128.49 78.85 126.79 78.79 125.15 78.76 123.53 78.74 123.53 78.74 123.53 78.74" fill="#FF401E"/>
<path xmlns="http://www.w3.org/2000/svg" d="M150.2 80.95C150.01 80.95 149.78 80.89 149.49 80.82 149.36 80.73 149.12 80.69 148.78 80.68 147.93 80.65 146.97 80.29 145.89 79.63Q145.76 79.63 145.65 79.62C145.49 79.62 145.34 79.54 145.2 79.39 145.18 79.31 145.14 79.25 145.08 79.21 145.03 79.14 144.97 79.05 144.92 78.93Q144.64 78.6 144.38 78.26C143.86 77.62 143.47 76.77 143.23 75.67 142.98 74.55 142.85 73.33 142.86 72.01 142.82 69.59 143.09 67.14 143.7 64.65 144.34 61.89 145.36 59.25 146.81 56.7 148.32 54.02 150.11 51.86 152.22 50.2 154.62 48.32 157.29 47.19 160.32 46.77 161.31 46.62 162.08 46.53 162.64 46.5 162.65 46.44 162.72 46.4 162.85 46.37Q162.94 46.36 163.04 46.34C166.21 45.8 169.25 45.32 172.13 44.92 174.7 44.61 177.14 44.55 179.32 44.79 183.28 45.59 185.03 47.07 184.61 49.21 183.53 51.73 180.74 55.1 176.89 59.36 173.68 63.76 170.14 68.13 166.22 72.28Q165.65 72.87 165.08 73.45C164.79 73.74 164.64 73.87 164.62 73.88Q164.44 74.06 164.28 74.24 164.04 74.39 163.8 74.56C161.01 77.51 158.43 79.42 155.94 80.38 154.4 80.83 152.5 81.02 150.2 80.95Q150.2 80.95 150.2 80.95M152.36 76.66C152.58 76.66 152.84 76.44 153.14 76.02 153.73 75.3 154.57 73.92 155.7 71.86 155.89 71.51 156.32 70.71 157.02 69.47 157.73 68.22 158.36 67.07 158.93 66 160.4 63.29 161.31 61.63 161.62 61.01Q162.08 60.1 162.53 59.21C163.22 57.83 163.74 56.65 164.08 55.7 164.65 54.19 164.9 53.05 164.87 52.25 164.64 51.89 164.41 51.73 164.2 51.76 163.76 51.84 163.27 52.17 162.71 52.76 162.15 53.36 161.5 54.38 160.75 55.87Q158.33 60.4 155.87 65 155.47 65.94 155.06 66.89C154.46 68.5 154.06 69.54 153.85 70.05Q153.6 70.73 153.35 71.43 153.02 72.35 152.71 73.27C152.59 73.58 152.5 73.85 152.46 74.08Q152.24 75.14 152.04 76.2C152 76.36 152.01 76.47 152.08 76.55 152.17 76.62 152.26 76.67 152.36 76.66Q152.36 76.66 152.36 76.66" fill="#FF401E"/>
<path xmlns="http://www.w3.org/2000/svg" d="M23.07 32.43Q18.81 31.84 14.15 31.26C13.42 31.17 13.03 30.78 12.98 30.1 12.89 29.66 12.98 29.06 13.24 28.3 14.19 25.64 15.01 23.04 15.61 20.5 15.98 18.46 16.28 16.16 16.5 13.6 16.63 10.83 16.67 7.81 16.62 4.58Q16.42 -0.47 16.09 -5.53 15.69 -10.39 15.25 -14.89C15.2 -15.35 15.25 -15.69 15.4 -15.92 15.57 -16.17 15.76 -16.19 15.99 -15.99Q18.12 -14.01 20.25 -12.04C21.07 -11.25 22.08 -10.32 23.31 -9.2 25.15 -7.52 26.58 -6.22 27.6 -5.33Q28.28 -4.73 28.96 -4.14C30.47 -2.81 31.67 -1.75 32.55 -0.94 34.07 0.44 35.6 2.19 37.12 4.23 38.9 6.51 40.41 8.92 41.68 11.38 43.19 14.07 44.19 16.68 44.67 19.54 45.14 22.43 45.27 24.88 45.03 26.84 44.83 28.89 44.23 30.54 43.19 31.75 42.15 32.96 40.6 33.72 38.5 33.99 37.44 34.13 36.19 34.16 34.75 34.08 33.28 33.99 31.59 33.79 29.68 33.46Q26.47 32.94 23.07 32.43 23.07 32.43 23.07 32.43M29.33 25.93C29.45 25.98 29.61 26.04 29.81 26.08 30.04 26.13 30.35 26.15 30.74 26.17 30.88 26.16 30.97 26.14 31.03 26.12 31.11 26.06 31.17 26.02 31.23 26 31.52 25.55 31.74 24.52 31.9 22.91 31.99 21.91 32.08 20.18 32.13 17.73 32.08 15.61 31.98 13.78 31.85 12.22Q31.8 11.69 31.75 11.16C31.67 10.2 31.48 8.72 31.17 6.71 30.81 4.67 30.42 3.13 30.02 2.11 29.69 1.38 29.42 0.91 29.2 0.74 28.98 0.56 28.79 0.44 28.63 0.38 28.47 0.32 28.36 0.29 28.31 0.29 28.27 0.29 28.17 0.3 28.01 0.32Q28.32 3.84 28.6 7.43C28.64 8.07 28.69 9.02 28.73 10.28Q28.75 10.99 28.79 11.7C28.86 13.67 28.92 15.1 28.97 15.98Q29.14 21 29.33 25.93 29.33 25.93 29.33 25.93" fill="#90FF69"/>
<path xmlns="http://www.w3.org/2000/svg" d="M52.99 37.9C52.56 37.85 52.17 37.23 51.81 36.06 51.64 35.57 51.52 35.14 51.44 34.76 51.34 34.25 51.26 33.93 51.22 33.81 51.02 32.89 50.69 31.46 50.24 29.54Q50.02 28.68 49.82 27.83C49.22 25.28 48.83 23.49 48.64 22.38Q48.22 20.09 47.83 17.97 47.45 16.06 47.07 14.37C47.04 14.23 47.24 14.22 47.66 14.3 47.88 14.32 48.22 14.38 48.66 14.46 48.95 14.5 49.26 14.54 49.61 14.58 49.95 14.59 50.21 14.59 50.37 14.57 50.74 14.58 51.31 14.53 52.08 14.4Q52.14 14.34 52.21 14.27 53 14.1 53.79 13.9C53.87 13.96 53.97 13.97 54.06 13.95Q54.13 13.93 54.2 13.91C54.22 13.88 54.28 13.85 54.38 13.83 54.42 13.79 54.49 13.76 54.59 13.73 54.6 13.71 54.63 13.68 54.65 13.68 54.67 13.67 54.69 13.67 54.69 13.67 54.76 13.65 54.85 13.65 54.95 13.67 55.05 13.68 55.12 13.67 55.17 13.65Q56.5 13.28 57.83 12.88 58.4 16.32 59 19.74C59 19.77 58.99 19.87 58.97 20.03 58.97 20.17 58.97 20.36 58.99 20.61 59.07 21.59 59.16 22.36 59.25 22.95Q59.92 27.07 60.64 31.39 60.74 32.25 60.84 33.12C60.9 33.89 60.99 34.52 61.1 35.02 61.21 35.67 61.29 36.2 61.31 36.61 61.36 36.99 61.35 37.28 61.27 37.51 61.17 37.72 60.97 37.82 60.68 37.82Q60.65 37.8 60.64 37.78 60.58 37.75 60.52 37.73C60.48 37.73 60.46 37.74 60.46 37.77Q60.37 37.77 60.29 37.77C60.16 37.82 60.09 37.87 60.08 37.9 59.96 37.9 59.69 37.84 59.26 37.73Q59.01 37.69 58.76 37.67C58.64 37.66 58.59 37.71 58.59 37.85Q57.04 37.76 55.48 37.65 55.05 37.73 54.61 37.81 54.2 37.84 53.79 37.87 53.38 37.88 52.99 37.9 52.99 37.9 52.99 37.9" fill="#90FF69"/>
<path xmlns="http://www.w3.org/2000/svg" d="M71.61 37.74C71.38 37.75 71.21 37.72 71.09 37.65 70.95 37.6 70.82 37.58 70.71 37.58Q70.56 37.59 70.41 37.6C70.21 37.44 70.1 37.27 70.08 37.12Q68.93 33.87 67.79 30.69 66.65 27.59 65.52 24.56C65.01 23.13 64.5 21.65 63.99 20.13 63.48 18.64 62.97 17.1 62.45 15.52 62.44 15.41 62.41 15.3 62.37 15.19 62.32 15.06 62.28 14.91 62.24 14.77 62.05 14.17 61.95 13.7 61.9 13.38 61.85 13.04 61.84 12.79 61.87 12.62 61.91 12.31 62.04 12.11 62.28 12.04Q62.64 11.93 63 11.81C63.29 11.76 63.68 11.64 64.18 11.48Q64.72 11.31 65.26 11.14 65.51 11.09 65.76 11.03 66.85 10.68 67.94 10.32C67.97 10.35 68.01 10.39 68.07 10.43 68.14 10.45 68.22 10.43 68.29 10.41 68.29 10.41 68.29 10.41 68.32 10.4 68.34 10.36 68.36 10.31 68.38 10.23Q68.52 10.17 68.66 10.09 68.73 10.07 68.8 10.05C69.04 10.01 69.38 9.91 69.81 9.77 70.22 9.74 70.84 9.58 71.68 9.31 71.88 9.63 72.19 10.59 72.6 12.21Q72.88 13.37 73.17 14.54 73.35 15.28 73.54 16.04 73.68 16.62 73.83 17.21 73.92 17.6 74.02 17.99C74.36 19.55 74.68 20.93 74.97 22.08 75.19 23.18 75.51 24.55 75.92 26.22Q75.99 26.59 76.06 26.97 76.08 27.09 76.09 27.23C76.11 27.39 76.13 27.54 76.17 27.68 76.16 27.61 76.17 27.56 76.19 27.52 76.21 27.48 76.21 27.43 76.21 27.37 76.19 27.16 76.18 27.02 76.2 26.95Q76.19 26.56 76.19 26.18C76.22 25.17 76.24 23.74 76.24 21.86Q76.26 20.91 76.27 19.96C76.3 19.5 76.32 19.07 76.33 18.64 76.33 18.22 76.34 17.83 76.36 17.48 76.35 17.16 76.35 16.95 76.37 16.84 76.38 16.73 76.39 16.65 76.39 16.62 76.4 15.73 76.44 14.75 76.51 13.66Q76.54 13.02 76.58 12.36C76.59 11.21 76.66 10.04 76.77 8.85 76.81 8.38 76.86 7.96 76.96 7.61 77.43 7.46 77.92 7.25 78.44 6.97Q78.72 6.88 79.01 6.79 79.13 6.73 79.25 6.66 79.29 6.65 79.32 6.64 79.34 6.66 79.36 6.68C79.39 6.78 79.42 6.83 79.45 6.82 79.61 6.77 79.7 6.73 79.69 6.69 79.69 6.65 79.69 6.63 79.69 6.63 79.71 6.59 79.72 6.56 79.71 6.51Q80.82 6.17 81.92 5.83 82.59 5.6 83.26 5.37C83.58 5.28 83.84 5.19 84.03 5.09Q84.56 4.95 85.09 4.81C85.48 4.71 85.72 5.32 85.79 6.64Q85.74 7.47 85.7 8.29C85.64 8.94 85.61 9.31 85.62 9.38 85.44 12.12 85.27 14.51 85.11 16.57 84.96 18.6 84.82 20.32 84.68 21.73Q84.28 25.5 83.9 29.19 83.53 32.82 83.19 36.4C83.19 36.46 83.17 36.56 83.11 36.67 83.07 36.76 83.03 36.86 82.97 36.94Q82.84 36.94 82.71 36.95C82.62 36.95 82.52 36.99 82.39 37.06 82.31 37.13 82.2 37.18 82.07 37.19 81.75 37.2 81.49 37.17 81.31 37.11 80.99 37.06 80.73 37.04 80.51 37.06 80.47 37.12 80.36 37.16 80.16 37.17 79.86 37.26 79.25 37.33 78.33 37.38Q77.04 37.45 75.75 37.52C75.68 37.49 75.43 37.45 75.01 37.41Q74.66 37.43 74.31 37.45 74.14 37.43 73.97 37.42C73.68 37.43 73.28 37.49 72.76 37.57 72.5 37.66 72.11 37.72 71.61 37.74Q71.61 37.74 71.61 37.74" fill="#90FF69"/>
<path xmlns="http://www.w3.org/2000/svg" d="M92.54 36.57C92.5 36.57 92.46 36.5 92.43 36.36 92.26 36.03 92.12 35.64 92.02 35.18 91.95 35 91.88 34.76 91.81 34.49 91.57 33.84 91.37 32.93 91.21 31.79 91.01 30.12 90.87 28.79 90.81 27.81 90.76 27.37 90.7 26.76 90.65 25.99Q90.61 25.32 90.56 24.65C90.49 23.54 90.42 22.65 90.36 22.02 90.3 21.33 90.2 19.99 90.08 17.98 89.93 15.23 89.81 12.75 89.73 10.57 89.65 8.35 89.62 6.44 89.61 4.84 89.59 4.34 89.95 3.98 90.68 3.79Q91.56 3.91 92.45 4.07C93.66 4.33 94.56 4.58 95.15 4.8 96.04 5.13 96.94 5.41 97.84 5.65 98.05 5.7 98.21 5.73 98.31 5.72Q98.54 5.78 98.78 5.84 98.87 5.97 98.96 6.1C99.63 6.04 100.33 6.07 101.06 6.2 101.79 6.34 102.67 6.54 103.72 6.83 103.77 6.84 103.82 6.91 103.89 7.03Q104.4 7.17 104.9 7.31C105.07 7.36 105.21 7.55 105.33 7.88 105.47 8.22 105.6 8.7 105.72 9.3 105.85 9.78 105.97 10.34 106.08 11.01 106.25 11.9 106.38 12.49 106.47 12.79 106.57 13.75 106.51 14.22 106.3 14.17 106.27 14.16 106.24 14.11 106.19 13.99Q106.12 13.95 106.05 13.91C105.94 13.85 105.83 13.84 105.71 13.89 105.59 13.96 105.45 13.98 105.3 13.95 105.18 13.92 105.06 13.84 104.97 13.72 104.92 13.67 104.82 13.64 104.67 13.6 104.48 13.56 104.26 13.56 104.02 13.61 103.94 13.63 103.77 13.64 103.52 13.66 103.29 13.68 103.01 13.66 102.69 13.59 101.78 13.4 101.11 13.29 100.72 13.29 100.48 13.27 100.27 13.34 100.07 13.48Q100.06 13.43 100.06 13.37C99.98 13.36 99.91 13.52 99.88 13.88 99.78 14.47 99.74 15.32 99.78 16.42 99.78 16.74 99.8 17.11 99.83 17.51 99.85 17.91 99.91 18.19 99.98 18.35 100.08 18.51 100.21 18.6 100.39 18.63 100.52 18.65 100.62 18.59 100.7 18.46 100.74 18.47 100.79 18.49 100.86 18.53 100.93 18.58 100.98 18.64 101.04 18.73Q102.41 18.94 103.79 19.17C103.81 19.1 103.84 19.05 103.88 19.02 103.92 18.99 103.96 18.99 104 19 104.22 19.04 104.38 19.11 104.5 19.24 104.64 19.37 104.91 19.52 105.31 19.69 105.53 19.73 105.68 19.85 105.79 20.09 105.93 20.35 106 20.59 106.02 20.8Q106.5 22.57 107 24.35C107.11 24.92 106.81 25.23 106.1 25.31 105.69 25.4 104.89 25.37 103.71 25.22Q102.51 25.07 101.32 24.94C101.01 24.9 100.79 24.91 100.64 24.97 100.49 24.99 100.4 25.11 100.37 25.32 100.29 25.48 100.27 25.77 100.3 26.17Q100.31 26.28 100.31 26.39C100.32 26.56 100.35 26.69 100.37 26.77Q100.39 27.36 100.42 27.95C100.41 28.2 100.42 28.57 100.46 29.08Q100.5 29.74 100.54 30.42C101.53 30.5 102.53 30.53 103.56 30.51 104.56 30.5 105.56 30.55 106.55 30.65 106.62 30.66 106.68 30.75 106.74 30.93 106.79 31.07 106.82 31.25 106.84 31.45 106.9 31.67 106.93 31.89 106.95 32.14 107.03 32.66 107.13 33.14 107.24 33.61Q107.4 34.36 107.56 35.13 107.61 35.92 107.66 36.73 107.53 36.89 107.41 37.07 107.24 37.06 107.08 37.04C106.83 37.02 106.68 36.99 106.61 36.95 106.54 36.88 106.46 36.84 106.37 36.84 106.33 36.86 106.27 36.91 106.18 36.98 106.09 37.03 106.03 37.1 105.96 37.16Q105.96 37.03 105.95 36.9 105.75 36.92 105.55 36.93 105.3 36.91 105.06 36.9C104.97 36.89 104.9 36.85 104.86 36.78Q104.72 36.74 104.59 36.71C103.77 36.65 103.21 36.73 102.9 36.95Q100.3 36.81 97.71 36.69 95.12 36.61 92.54 36.57 92.54 36.57 92.54 36.57" fill="#90FF69"/>
<path xmlns="http://www.w3.org/2000/svg" d="M122.45 39.2C122.02 39.18 121.72 38.57 121.53 37.4 121.43 36.91 121.37 36.47 121.34 36.08 121.3 35.55 121.27 35.23 121.24 35.1 121.14 34.16 120.95 32.68 120.67 30.64Q120.52 29.72 120.38 28.8C119.91 25.96 119.57 23.87 119.38 22.55Q118.96 19.65 118.5 16.77 118.02 13.89 117.53 11.01C117.49 10.77 117.65 10.63 118.01 10.6 118.21 10.56 118.5 10.6 118.88 10.7 119.14 10.77 119.42 10.88 119.74 11.01 120.05 11.13 120.28 11.2 120.43 11.24 120.77 11.38 121.28 11.54 121.99 11.71Q122.04 11.66 122.09 11.61 122.82 11.78 123.57 11.94C123.67 12.05 123.76 12.11 123.85 12.13Q123.92 12.14 123.99 12.15C124 12.13 124.06 12.13 124.15 12.14 124.2 12.13 124.26 12.12 124.35 12.14 124.37 12.12 124.39 12.1 124.41 12.11 124.43 12.11 124.45 12.12 124.45 12.12 124.52 12.13 124.62 12.18 124.72 12.25 124.83 12.3 124.9 12.32 124.95 12.33Q126.33 12.53 127.78 12.69 128.78 16.45 129.69 20.25C129.69 20.28 129.69 20.38 129.68 20.56 129.68 20.7 129.69 20.91 129.73 21.17 129.86 22.23 129.98 23.07 130.1 23.7Q130.81 28.1 131.38 32.56 131.41 33.43 131.44 34.31C131.44 35.08 131.47 35.71 131.53 36.22 131.58 36.87 131.59 37.39 131.57 37.81 131.57 38.18 131.51 38.47 131.39 38.69 131.25 38.9 131 39 130.67 38.99Q130.65 38.97 130.63 38.95 130.57 38.92 130.52 38.9C130.46 38.9 130.44 38.91 130.44 38.95Q130.34 38.94 130.25 38.94C130.1 38.99 130.01 39.04 129.99 39.07 129.86 39.07 129.57 39.01 129.11 38.9Q128.85 38.86 128.58 38.83C128.45 38.83 128.38 38.88 128.37 39.02Q126.7 38.94 125.07 38.86 124.6 38.95 124.13 39.05 123.7 39.1 123.27 39.14 122.86 39.17 122.45 39.2 122.45 39.2 122.45 39.2" fill="#90FF69"/>
<path xmlns="http://www.w3.org/2000/svg" d="M138.73 39.19Q137.91 38.94 137.1 38.69 137.05 38.55 137 38.4C136.97 38.4 136.95 38.25 136.93 37.94 136.9 37.54 136.86 37.22 136.82 36.98Q136.72 36.11 136.63 35.24C136.56 34.87 136.49 34.29 136.41 33.5 136.32 32.74 136.24 32.19 136.17 31.83Q136.09 31.15 136 30.48C135.57 28.59 135.18 26.66 134.84 24.69Q134.75 24.17 134.66 23.67C134.59 23.32 134.55 23.06 134.56 22.93Q134.5 22.59 134.43 22.27C134.39 22.18 134.35 22.03 134.31 21.83Q134.12 20.88 133.93 19.94C133.86 19.59 133.82 19.34 133.82 19.2Q133.78 18.98 133.73 18.76 133.72 18.65 133.73 18.55 133.66 18.26 133.61 17.98C133.57 17.68 133.5 17.29 133.4 16.8 133.32 16.42 133.23 16.09 133.14 15.79Q133.01 15.29 132.88 14.78 132.84 14.69 132.81 14.6C132.71 14.54 132.7 14.5 132.78 14.47 132.79 14.01 133.07 13.7 133.61 13.53 133.86 13.43 134.31 13.4 134.96 13.44 135.43 13.47 136.68 13.5 138.68 13.54 139.69 13.54 140.32 13.54 140.57 13.56 140.99 13.56 141.49 13.57 142.08 13.6 142.37 13.65 142.57 13.72 142.7 13.81 142.82 13.88 142.94 14 143.05 14.18 143.19 14.36 143.29 14.49 143.37 14.58Q143.89 15.23 144.41 15.87C144.37 15.85 144.81 16.38 145.71 17.46 146.56 18.6 147.58 19.86 148.78 21.25 148.95 21.47 149.16 21.72 149.42 22.01 149.66 22.28 149.93 22.6 150.23 22.96Q150.08 22.24 149.93 21.53C149.88 21.14 149.78 20.59 149.65 19.88 149.48 18.93 149.33 17.87 149.2 16.7 149.17 16.48 149.14 16.28 149.15 16.11 149.15 15.92 149.14 15.77 149.13 15.65 149.09 15.37 149.07 15.23 149.11 15.23 149.19 15.06 149.36 14.9 149.61 14.71 149.92 14.51 150.25 14.42 150.61 14.47Q151.86 14.54 153.1 14.61C153.51 14.63 153.84 14.66 154.12 14.7Q154.74 14.74 155.35 14.77C155.62 14.82 156.02 14.85 156.56 14.88Q157.2 14.92 157.84 14.96C158.36 14.99 158.76 15.11 159.02 15.31 159.18 15.43 159.28 15.59 159.34 15.78 159.38 15.94 159.41 16.2 159.41 16.55 159.42 16.9 159.41 17.18 159.39 17.42 159.37 17.69 159.37 18.01 159.39 18.37Q159.4 18.51 159.4 18.64C159.43 18.72 159.45 18.85 159.46 19Q159.5 19.51 159.55 20.01 159.88 22.18 160.52 24.3 161.78 26.8 163.54 29.24C165.69 31.75 167.03 33.37 167.53 34.08Q167.89 34.7 168.24 35.33C168.39 35.95 168.26 36.31 167.87 36.41 167.77 36.43 167.64 36.47 167.49 36.53 167.36 36.58 167.21 36.62 167.04 36.65 165.46 36.92 164.32 37.07 163.6 37.12Q160.13 37.62 156.9 38.02C156.79 38.07 156.65 38.1 156.48 38.12 156.05 38.17 155.6 38.14 155.12 38.05 154.83 38.01 154.52 37.89 154.17 37.65Q151.52 35.17 148.98 32.63C148.79 32.43 148.44 32.11 147.95 31.68Q147.61 31.43 147.28 31.18C147.1 31.04 146.98 30.97 146.89 30.97 146.8 30.98 146.73 31.02 146.7 31.11 146.64 31.16 146.63 31.22 146.64 31.28Q146.71 31.64 146.77 32.01C146.78 32.24 146.83 32.6 146.91 33.09Q147.02 33.72 147.12 34.35C147.13 34.67 147.18 35.11 147.26 35.67Q147.38 36.52 147.48 37.39C147.45 37.45 147.45 37.54 147.46 37.66 147.47 37.69 147.45 37.92 147.4 38.37 147.35 38.5 147.31 38.58 147.28 38.6 147.25 38.64 147.15 38.67 146.97 38.68 146.9 38.64 146.83 38.63 146.78 38.63 146.74 38.63 146.72 38.63 146.69 38.64 144.34 38.96 142.44 39.13 140.95 39.16Q139.83 39.18 138.73 39.19 138.73 39.19 138.73 39.19" fill="#90FF69"/>
</svg>